<?xml version="1.0" standalone="no"?>
<!DOCTYPE svg PUBLIC "-//W3C//DTD SVG 1.1//EN" "http://www.w3.org/Graphics/SVG/1.1/DTD/svg11.dtd" >
<!--
2014-3-16: Created.
-->
<svg xmlns="http://www.w3.org/2000/svg">
<metadata>
Created by FontForge 20120731 at Sun Mar 16 17:47:24 2014
 By Paul Fitzpatrick,,,
Created by Paul Fitzpatrick,,, with FontForge 2.0 (http://fontforge.sf.net)
</metadata>
<defs>
<font id="fontcustom" horiz-adv-x="512" >
  <font-face 
    font-family="fontcustom"
    font-weight="500"
    font-stretch="normal"
    units-per-em="512"
    panose-1="2 0 6 9 0 0 0 0 0 0"
    ascent="448"
    descent="-64"
    bbox="30.1654 -33.5996 481.6 417.403"
    underline-thickness="25.6"
    underline-position="-51.2"
    unicode-range="U+F100-F143"
  />
    <missing-glyph />
    <glyph glyph-name="uniF13D" unicode="&#xf13d;" 
d="M52.7998 392c28.7998 33.5996 371.2 33.5996 404.8 1.59961c32 -33.5996 32 -369.6 0 -403.199c-33.5996 -32 -369.6 -32 -403.199 0c-30.4004 30.3994 -32 368 -1.60059 401.6zM315.2 292.8l60.7998 59.2002h-120h-120l60.7998 -59.2002l59.2002 -60.7998zM155.2 132.8
l60.7998 59.2002l-60.7998 59.2002l-59.2002 60.7998v-120v-120zM416 188.8c0 62.4004 -1.59961 115.2 -4.7998 115.2s-28.7998 -25.5996 -59.2002 -56l-54.4004 -56l59.2002 -60.7998l59.2002 -59.2002v116.8zM320 88c-30.4004 30.4004 -59.2002 56 -64 56
s-33.5996 -25.5996 -64 -56l-54.4004 -56h118.4h118.4z" />
    <glyph glyph-name="uniF12D" unicode="&#xf12d;" 
d="M52.7998 388.8c9.60059 4.7998 22.4004 9.60059 27.2002 9.60059c3.2002 1.59961 38.4004 -28.8008 75.2002 -65.6006l68.7998 -67.2002v59.2002c0 48 6.40039 59.2002 32 59.2002s32 -11.2002 32 -59.2002v-59.2002l72 70.4004c56 56 76.7998 65.5996 91.2002 51.2002
c16 -16 0 -38.4004 -67.2002 -107.2l-86.4004 -88l83.2002 -84.7998c123.2 -124.8 112 -139.2 -120 -139.2c-137.6 0 -188.8 6.40039 -206.399 22.4004c-30.4004 30.3994 -33.6006 387.199 -1.60059 398.399zM155.2 132.8l60.7998 59.2002l-60.7998 59.2002
l-59.2002 60.7998v-120v-120zM224 72c0 22.4004 -1.59961 40 -4.7998 40s-22.4004 -17.5996 -43.2002 -40l-36.7998 -40h41.5996c35.2002 0 43.2002 8 43.2002 40zM336 72c-20.7998 22.4004 -40 40 -43.2002 40s-4.7998 -17.5996 -4.7998 -40c0 -32 8 -40 43.2002 -40
h41.5996z" />
    <glyph glyph-name="uniF10A" unicode="&#xf10a;" 
d="M54.4004 382.4c17.5996 27.1992 27.1992 22.3994 116.8 -65.6006l84.7998 -83.2002l88 86.4004c68.7998 68.7998 91.2002 83.2002 107.2 67.2002s1.59961 -38.4004 -67.2002 -107.2l-86.4004 -88l86.4004 -88c68.7998 -68.7998 83.2002 -91.2002 67.2002 -107.2
s-38.4004 -1.59961 -107.2 67.2002l-88 86.4004l-88 -86.4004c-68.7998 -68.7998 -91.2002 -83.2002 -107.2 -67.2002s-1.59961 38.4004 67.2002 107.2l86.4004 88l-84.8008 86.4004c-46.3994 48 -80 94.3994 -75.1992 104z" />
    <glyph glyph-name="uniF10B" unicode="&#xf10b;" 
d="M54.4004 382.4c17.5996 27.1992 27.1992 22.3994 100.8 -49.6006l68.7998 -67.2002v59.2002c0 48 6.40039 59.2002 32 59.2002s32 -11.2002 32 -59.2002v-59.2002l72 70.4004c56 56 76.7998 65.5996 91.2002 51.2002c16 -16 0 -38.4004 -67.2002 -107.2l-86.4004 -88
l86.4004 -88c67.2002 -68.7998 83.2002 -91.2002 67.2002 -107.2c-14.4004 -14.3994 -35.2002 -4.7998 -91.2002 51.2002l-72 70.4004v-59.2002c0 -48 -6.40039 -59.2002 -32 -59.2002s-32 11.2002 -32 59.2002v59.2002l-72 -70.4004
c-56 -56 -76.7998 -65.5996 -91.2002 -51.2002c-16 16 0 38.4004 67.2002 107.2l86.4004 88l-84.8008 86.4004c-46.3994 48 -80 94.3994 -75.1992 104z" />
    <glyph glyph-name="uniF142" unicode="&#xf142;" 
d="M52.7998 392c28.7998 33.5996 371.2 33.5996 404.8 1.59961c32 -33.5996 32 -369.6 0 -403.199c-33.5996 -32 -369.6 -32 -403.199 0c-30.4004 30.3994 -32 368 -1.60059 401.6zM224 312c0 32 -8 40 -43.2002 40h-41.5996l36.7998 -40
c20.7998 -22.4004 40 -40 43.2002 -40s4.7998 17.5996 4.7998 40zM368 347.2c0 3.2002 -17.5996 4.7998 -40 4.7998c-32 0 -40 -8 -40 -43.2002v-41.5996l40 36.7998c22.4004 20.7998 40 40 40 43.2002zM144 264c-46.4004 49.5996 -48 49.5996 -48 0
c0 -32 8 -40 43.2002 -40h41.5996zM416 264c0 22.4004 -1.59961 40 -4.7998 40s-22.4004 -17.5996 -43.2002 -40l-36.7998 -40h41.5996c35.2002 0 43.2002 8 43.2002 40zM176 155.2c0 3.2002 -17.5996 4.7998 -40 4.7998c-32 0 -40 -8 -40 -43.2002v-41.5996l40 36.7998
c22.4004 20.7998 40 40 40 43.2002zM416 120c0 32 -8 40 -43.2002 40h-41.5996l36.7998 -40c20.7998 -22.4004 40 -40 43.2002 -40s4.7998 17.5996 4.7998 40zM224 72c0 22.4004 -1.59961 40 -4.7998 40s-22.4004 -17.5996 -43.2002 -40l-36.7998 -40h41.5996
c35.2002 0 43.2002 8 43.2002 40zM336 72c-20.7998 22.4004 -40 40 -43.2002 40s-4.7998 -17.5996 -4.7998 -40c0 -32 8 -40 43.2002 -40h41.5996z" />
    <glyph glyph-name="uniF141" unicode="&#xf141;" 
d="M52.7998 392c28.7998 33.5996 371.2 33.5996 404.8 1.59961c32 -33.5996 32 -369.6 0 -403.199c-33.5996 -32 -369.6 -32 -403.199 0c-30.4004 30.3994 -32 368 -1.60059 401.6zM315.2 292.8l60.7998 59.2002h-120h-120l60.7998 -59.2002l59.2002 -60.7998zM144 264
c-46.4004 49.5996 -48 49.5996 -48 0c0 -32 8 -40 43.2002 -40h41.5996zM416 264c0 22.4004 -1.59961 40 -4.7998 40s-22.4004 -17.5996 -43.2002 -40l-36.7998 -40h41.5996c35.2002 0 43.2002 8 43.2002 40zM176 155.2c0 3.2002 -17.5996 4.7998 -40 4.7998
c-32 0 -40 -8 -40 -43.2002v-41.5996l40 36.7998c22.4004 20.7998 40 40 40 43.2002zM416 120c0 32 -8 40 -43.2002 40h-41.5996l36.7998 -40c20.7998 -22.4004 40 -40 43.2002 -40s4.7998 17.5996 4.7998 40zM320 88c-30.4004 30.4004 -59.2002 56 -64 56
s-33.5996 -25.5996 -64 -56l-54.4004 -56h118.4h118.4z" />
    <glyph glyph-name="uniF110" unicode="&#xf110;" 
 />
    <glyph glyph-name="uniF10E" unicode="&#xf10e;" 
d="M54.4004 382.4c17.5996 27.1992 27.1992 22.3994 116.8 -65.6006l84.7998 -83.2002l88 86.4004c68.7998 67.2002 91.2002 83.2002 107.2 67.2002c14.3994 -14.4004 4.7998 -35.2002 -51.2002 -91.2002l-70.4004 -72h59.2002c48 0 59.2002 -6.40039 59.2002 -32
s-11.2002 -32 -59.2002 -32h-59.2002l70.4004 -72c56 -56 65.5996 -76.7998 51.2002 -91.2002c-16 -16 -38.4004 0 -107.2 67.2002l-88 86.4004l-88 -86.4004c-68.7998 -67.2002 -91.2002 -83.2002 -107.2 -67.2002c-14.3994 14.4004 -4.7998 35.2002 51.2002 91.2002
l70.4004 72h-59.2002c-48 0 -59.2002 6.40039 -59.2002 32s11.2002 32 59.2002 32h59.2002l-68.8008 70.4004c-38.3994 38.3994 -64 78.3994 -59.1992 88z" />
    <glyph glyph-name="uniF135" unicode="&#xf135;" 
d="M52.7998 392c28.7998 33.5996 371.2 33.5996 404.8 1.59961c32 -33.5996 32 -369.6 0 -403.199c-33.5996 -32 -369.6 -32 -403.199 0c-30.4004 30.3994 -32 368 -1.60059 401.6zM416 216v136h-139.2h-140.8l136 -136c75.2002 -75.2002 137.6 -136 139.2 -136
c3.2002 0 4.7998 60.7998 4.7998 136zM240 168c-75.2002 75.2002 -137.6 136 -139.2 136c-3.2002 0 -4.7998 -60.7998 -4.7998 -136v-136h139.2h140.8z" />
    <glyph glyph-name="uniF12A" unicode="&#xf12a;" 
d="M259.2 236.8c91.2002 89.6006 169.6 163.2 176 163.2c48 0 11.2002 -57.5996 -132.8 -201.6l-166.4 -166.4h156.8c144 0 155.2 -1.59961 155.2 -32s-11.2002 -32 -185.6 -32c-139.2 0 -190.4 6.40039 -208 22.4004c-16 17.5996 -22.4004 68.7998 -22.4004 208
c0 174.399 1.59961 185.6 32 185.6s32 -11.2002 32 -155.2v-156.8z" />
    <glyph glyph-name="uniF138" unicode="&#xf138;" 
d="M52.7998 392c28.7998 33.5996 371.2 33.5996 404.8 1.59961c32 -33.5996 32 -369.6 0 -403.199c-33.5996 -32 -369.6 -32 -403.199 0c-30.4004 30.3994 -32 368 -1.60059 401.6zM224 288c0 64 0 64 -64 64s-64 0 -64 -64s0 -64 64 -64s64 0 64 64zM416 288
c0 64 0 64 -64 64s-64 0 -64 -64s0 -64 64 -64s64 0 64 64zM224 96c0 64 0 64 -64 64s-64 0 -64 -64s0 -64 64 -64s64 0 64 64zM416 96c0 64 0 64 -64 64s-64 0 -64 -64s0 -64 64 -64s64 0 64 64z" />
    <glyph glyph-name="uniF133" unicode="&#xf133;" 
d="M52.7998 392c28.7998 33.5996 371.2 33.5996 404.8 1.59961c32 -33.5996 32 -369.6 0 -403.199c-33.5996 -32 -369.6 -32 -403.199 0c-30.4004 30.3994 -32 368 -1.60059 401.6zM176 347.2c0 3.2002 -17.5996 4.7998 -40 4.7998c-32 0 -40 -8 -40 -43.2002v-41.5996
l40 36.7998c22.4004 20.7998 40 40 40 43.2002zM416 312c0 32 -8 40 -43.2002 40h-41.5996l36.7998 -40c20.7998 -22.4004 40 -40 43.2002 -40s4.7998 17.5996 4.7998 40zM336 264c-38.4004 40 -75.2002 72 -80 72s-41.5996 -32 -80 -72l-70.4004 -72l75.2002 -76.7998
l75.2002 -75.2002l75.2002 75.2002l75.2002 76.7998zM144 72c-20.7998 22.4004 -40 40 -43.2002 40s-4.7998 -17.5996 -4.7998 -40c0 -32 8 -40 43.2002 -40h41.5996zM416 72c0 22.4004 -1.59961 40 -4.7998 40s-22.4004 -17.5996 -43.2002 -40l-36.7998 -40h41.5996
c35.2002 0 43.2002 8 43.2002 40z" />
    <glyph glyph-name="uniF12B" unicode="&#xf12b;" 
d="M355.2 332.8c72 72 84.7998 76.7998 102.399 49.6006c4.80078 -9.60059 -30.3994 -57.6006 -80 -108.801c-83.1992 -84.7998 -89.5996 -96 -89.5996 -166.399v-75.2002h80c68.7998 0 80 -4.7998 80 -32c0 -30.4004 -11.2002 -32 -185.6 -32
c-139.2 0 -190.4 6.40039 -208 22.4004c-16 17.5996 -22.4004 68.7998 -22.4004 208c0 174.399 1.59961 185.6 32 185.6s32 -11.2002 32 -155.2v-155.2l64 62.4004c60.7998 59.2002 64 68.7998 64 155.2c0 81.5996 3.2002 92.7998 32 92.7998
c25.5996 0 32 -11.2002 32 -59.2002v-60.7998zM224 72c0 22.4004 -1.59961 40 -4.7998 40s-22.4004 -17.5996 -43.2002 -40l-36.7998 -40h41.5996c35.2002 0 43.2002 8 43.2002 40z" />
    <glyph glyph-name="uniF116" unicode="&#xf116;" 
d="M64 384c0 30.4004 11.2002 32 185.6 32c139.2 0 190.4 -6.40039 208 -22.4004c16 -17.5996 22.4004 -68.7998 22.4004 -208c0 -174.399 -1.59961 -185.6 -32 -185.6c-27.2002 0 -32 11.2002 -32 80v80h-64h-64v-80c0 -68.7998 -4.7998 -80 -32 -80s-32 11.2002 -32 80v80
h-80c-68.7998 0 -80 4.7998 -80 32s11.2002 32 80 32h80v64v64h-80c-68.7998 0 -80 4.7998 -80 32zM416 288c0 64 0 64 -64 64s-64 0 -64 -64s0 -64 64 -64s64 0 64 64z" />
    <glyph glyph-name="uniF134" unicode="&#xf134;" 
d="M52.7998 392c28.7998 33.5996 371.2 33.5996 404.8 1.59961c32 -33.5996 32 -369.6 0 -403.199c-33.5996 -32 -369.6 -32 -403.199 0c-30.4004 30.3994 -32 368 -1.60059 401.6zM224 192v160h-64h-64v-160v-160h64h64v160zM416 192v160h-64h-64v-160v-160h64h64v160z" />
    <glyph glyph-name="uniF119" unicode="&#xf119;" 
d="M64 384c0 30.4004 11.2002 32 185.6 32c139.2 0 190.4 -6.40039 208 -22.4004c16 -17.5996 22.4004 -68.7998 22.4004 -208c0 -174.399 -1.59961 -185.6 -32 -185.6s-32 11.2002 -32 155.2v156.8l-168 -168c-132.8 -132.8 -171.2 -163.2 -187.2 -147.2
s14.4004 54.4004 147.2 187.2l168 168h-156.8c-144 0 -155.2 1.59961 -155.2 32z" />
    <glyph glyph-name="uniF10F" unicode="&#xf10f;" 
d="M54.4004 382.4c17.5996 27.1992 27.1992 22.3994 100.8 -49.6006l68.7998 -67.2002v59.2002c0 48 6.40039 59.2002 32 59.2002s32 -11.2002 32 -59.2002v-59.2002l72 70.4004c56 54.4004 76.7998 65.5996 91.2002 51.2002
c14.3994 -14.4004 3.2002 -35.2002 -51.2002 -91.2002l-70.4004 -72h59.2002c48 0 59.2002 -6.40039 59.2002 -32s-11.2002 -32 -59.2002 -32h-59.2002l70.4004 -72c54.4004 -56 65.5996 -76.7998 51.2002 -91.2002c-14.4004 -14.3994 -35.2002 -3.2002 -91.2002 51.2002
l-72 70.4004v-59.2002c0 -48 -6.40039 -59.2002 -32 -59.2002s-32 11.2002 -32 59.2002v59.2002l-72 -70.4004c-56 -54.4004 -76.7998 -65.5996 -91.2002 -51.2002c-14.3994 14.4004 -3.2002 35.2002 51.2002 91.2002l70.4004 72h-59.2002
c-48 0 -59.2002 6.40039 -59.2002 32s11.2002 32 59.2002 32h59.2002l-68.8008 70.4004c-38.3994 38.3994 -64 78.3994 -59.1992 88z" />
    <glyph glyph-name="uniF123" unicode="&#xf123;" 
d="M32 198.4c0 174.399 1.59961 185.6 32 185.6s32 -11.2002 32 -176v-176h64h64v176c0 164.8 1.59961 176 32 176s32 -11.2002 32 -176v-176h80c68.7998 0 80 -4.7998 80 -32c0 -30.4004 -11.2002 -32 -185.6 -32c-139.2 0 -190.4 6.40039 -208 22.4004
c-16 17.5996 -22.4004 68.7998 -22.4004 208z" />
    <glyph glyph-name="uniF122" unicode="&#xf122;" 
d="M163.2 332.8c38.3994 36.7998 78.3994 67.2002 92.7998 67.2002c30.4004 0 208 -176 208 -206.4c0 -14.3994 -30.4004 -56 -67.2002 -92.7998l-67.2002 -68.7998h59.2002c48 0 59.2002 -6.40039 59.2002 -32c0 -30.4004 -11.2002 -32 -185.6 -32
c-139.2 0 -190.4 6.40039 -208 22.4004c-16 17.5996 -22.4004 68.7998 -22.4004 208c0 174.399 1.59961 185.6 32 185.6c25.5996 0 32 -11.2002 32 -59.2002v-60.7998zM336 264c-38.4004 40 -75.2002 72 -80 72s-41.5996 -32 -80 -72l-70.4004 -72l75.2002 -76.7998
l75.2002 -75.2002l75.2002 75.2002l75.2002 76.7998zM144 72c-20.7998 22.4004 -40 40 -43.2002 40s-4.7998 -17.5996 -4.7998 -40c0 -32 8 -40 43.2002 -40h41.5996z" />
    <glyph glyph-name="uniF112" unicode="&#xf112;" 
d="M64 384c0 30.4004 11.2002 32 185.6 32c139.2 0 190.4 -6.40039 208 -22.4004c16 -17.5996 22.4004 -68.7998 22.4004 -208c0 -174.399 -1.59961 -185.6 -32 -185.6s-32 11.2002 -32 176v176h-64h-64v-176c0 -164.8 -1.59961 -176 -32 -176s-32 11.2002 -32 176v176h-80
c-68.7998 0 -80 4.7998 -80 32z" />
    <glyph glyph-name="uniF111" unicode="&#xf111;" 
d="M64 384c0 30.4004 11.2002 32 185.6 32c139.2 0 190.4 -6.40039 208 -22.4004c16 -17.5996 22.4004 -68.7998 22.4004 -208c0 -174.399 -1.59961 -185.6 -32 -185.6c-25.5996 0 -32 11.2002 -32 59.2002v59.2002l-68.7998 -67.2002
c-36.7998 -36.7998 -78.4004 -67.2002 -92.7998 -67.2002c-30.4004 0 -206.4 177.6 -206.4 208c0 12.7998 30.4004 54.4004 67.2002 91.2002l67.2002 68.7998h-59.2002c-48 0 -59.2002 6.40039 -59.2002 32zM416 312c0 32 -8 40 -43.2002 40h-41.5996l36.7998 -40
c20.7998 -22.4004 40 -40 43.2002 -40s4.7998 17.5996 4.7998 40zM336 264c-38.4004 40 -75.2002 72 -80 72s-41.5996 -32 -80 -72l-70.4004 -72l75.2002 -76.7998l75.2002 -75.2002l75.2002 75.2002l75.2002 76.7998z" />
    <glyph glyph-name="uniF105" unicode="&#xf105;" 
d="M224 304c0 68.7998 4.7998 80 32 80s32 -11.2002 32 -80v-80h80c68.7998 0 80 -4.7998 80 -32s-11.2002 -32 -80 -32h-80v-80c0 -68.7998 -4.7998 -80 -32 -80s-32 11.2002 -32 80v80h-80c-68.7998 0 -80 4.7998 -80 32s11.2002 32 80 32h80v80z" />
    <glyph glyph-name="uniF12C" unicode="&#xf12c;" 
d="M52.7998 388.8c9.60059 4.7998 22.4004 9.60059 27.2002 9.60059c3.2002 1.59961 44.7998 -35.2002 91.2002 -81.6006l84.7998 -83.2002l88 86.4004c68.7998 68.7998 91.2002 83.2002 107.2 67.2002s1.59961 -38.4004 -67.2002 -107.2l-86.4004 -88l83.2002 -84.7998
c123.2 -124.8 112 -139.2 -120 -139.2c-137.6 0 -188.8 6.40039 -206.399 22.4004c-30.4004 30.3994 -33.6006 387.199 -1.60059 398.399zM155.2 132.8l60.7998 59.2002l-60.7998 59.2002l-59.2002 60.7998v-120v-120zM320 88c-30.4004 30.4004 -59.2002 56 -64 56
s-33.5996 -25.5996 -64 -56l-54.4004 -56h118.4h118.4z" />
    <glyph glyph-name="uniF126" unicode="&#xf126;" 
d="M32 198.4c0 174.399 1.59961 185.6 32 185.6c27.2002 0 32 -11.2002 32 -80v-80h176c164.8 0 176 -1.59961 176 -32s-11.2002 -32 -176 -32h-176v-64v-64h176c164.8 0 176 -1.59961 176 -32s-11.2002 -32 -185.6 -32c-139.2 0 -190.4 6.40039 -208 22.4004
c-16 17.5996 -22.4004 68.7998 -22.4004 208z" />
    <glyph glyph-name="uniF127" unicode="&#xf127;" 
d="M32 198.4c0 174.399 1.59961 185.6 32 185.6c27.2002 0 32 -11.2002 32 -80v-80h64h64v80c0 68.7998 4.7998 80 32 80s32 -11.2002 32 -80v-80h80c68.7998 0 80 -4.7998 80 -32s-11.2002 -32 -80 -32h-80v-64v-64h80c68.7998 0 80 -4.7998 80 -32
c0 -30.4004 -11.2002 -32 -185.6 -32c-139.2 0 -190.4 6.40039 -208 22.4004c-16 17.5996 -22.4004 68.7998 -22.4004 208zM224 96c0 64 0 64 -64 64s-64 0 -64 -64s0 -64 64 -64s64 0 64 64z" />
    <glyph glyph-name="uniF115" unicode="&#xf115;" 
d="M64 384c0 30.4004 11.2002 32 185.6 32c139.2 0 190.4 -6.40039 208 -22.4004c16 -17.5996 22.4004 -68.7998 22.4004 -208c0 -174.399 -1.59961 -185.6 -32 -185.6c-27.2002 0 -32 11.2002 -32 80v80h-176c-164.8 0 -176 1.59961 -176 32s11.2002 32 176 32h176v64v64
h-176c-164.8 0 -176 1.59961 -176 32z" />
    <glyph glyph-name="uniF104" unicode="&#xf104;" 
d="M64 192c0 30.4004 11.2002 32 192 32s192 -1.59961 192 -32s-11.2002 -32 -192 -32s-192 1.59961 -192 32z" />
    <glyph glyph-name="uniF100" unicode="&#xf100;" 
d="M139.2 307.2c51.2002 51.2002 102.399 92.7998 115.2 92.7998c32 0 209.6 -176 209.6 -206.4c0 -32 -176 -209.6 -206.4 -209.6c-32 0 -209.6 176 -209.6 206.4c0 14.3994 41.5996 65.5996 91.2002 116.8zM336 264c-38.4004 40 -75.2002 72 -80 72s-41.5996 -32 -80 -72
l-70.4004 -72l75.2002 -76.7998l75.2002 -75.2002l75.2002 75.2002l75.2002 76.7998z" />
    <glyph glyph-name="uniF101" unicode="&#xf101;" 
d="M224 192c0 180.8 1.59961 192 32 192s32 -11.2002 32 -192s-1.59961 -192 -32 -192s-32 11.2002 -32 192z" />
    <glyph glyph-name="uniF130" unicode="&#xf130;" 
d="M52.7998 388.8c9.60059 4.7998 22.4004 9.60059 27.2002 9.60059c3.2002 1.59961 44.7998 -35.2002 91.2002 -81.6006l84.7998 -83.2002l88 86.4004c68.7998 67.2002 91.2002 83.2002 107.2 67.2002c14.3994 -14.4004 4.7998 -35.2002 -51.2002 -91.2002l-70.4004 -72
h59.2002c48 0 59.2002 -6.40039 59.2002 -32s-11.2002 -32 -59.2002 -32h-59.2002l67.2002 -68.7998c105.601 -107.2 88 -123.2 -136 -123.2c-137.6 0 -188.8 6.40039 -206.399 22.4004c-30.4004 30.3994 -33.6006 387.199 -1.60059 398.399zM144 264
c-46.4004 49.5996 -48 49.5996 -48 0c0 -32 8 -40 43.2002 -40h41.5996zM176 155.2c0 3.2002 -17.5996 4.7998 -40 4.7998c-32 0 -40 -8 -40 -43.2002v-41.5996l40 36.7998c22.4004 20.7998 40 40 40 43.2002zM320 88c-30.4004 30.4004 -59.2002 56 -64 56
s-33.5996 -25.5996 -64 -56l-54.4004 -56h118.4h118.4z" />
    <glyph glyph-name="uniF131" unicode="&#xf131;" 
d="M52.7998 388.8c9.60059 4.7998 22.4004 9.60059 27.2002 9.60059c3.2002 1.59961 38.4004 -28.8008 75.2002 -65.6006l68.7998 -67.2002v59.2002c0 48 6.40039 59.2002 32 59.2002s32 -11.2002 32 -59.2002v-59.2002l72 70.4004
c56 54.4004 76.7998 65.5996 91.2002 51.2002c14.3994 -14.4004 3.2002 -35.2002 -51.2002 -91.2002l-70.4004 -72h59.2002c48 0 59.2002 -6.40039 59.2002 -32s-11.2002 -32 -59.2002 -32h-59.2002l67.2002 -68.7998c105.601 -107.2 88 -123.2 -136 -123.2
c-137.6 0 -188.8 6.40039 -206.399 22.4004c-30.4004 30.3994 -33.6006 387.199 -1.60059 398.399zM144 264c-46.4004 49.5996 -48 49.5996 -48 0c0 -32 8 -40 43.2002 -40h41.5996zM176 155.2c0 3.2002 -17.5996 4.7998 -40 4.7998c-32 0 -40 -8 -40 -43.2002v-41.5996
l40 36.7998c22.4004 20.7998 40 40 40 43.2002zM224 72c0 22.4004 -1.59961 40 -4.7998 40s-22.4004 -17.5996 -43.2002 -40l-36.7998 -40h41.5996c35.2002 0 43.2002 8 43.2002 40zM336 72c-20.7998 22.4004 -40 40 -43.2002 40s-4.7998 -17.5996 -4.7998 -40
c0 -32 8 -40 43.2002 -40h41.5996z" />
    <glyph glyph-name="uniF11F" unicode="&#xf11f;" 
d="M57.5996 388.8c8 24 36.8008 27.2002 193.601 27.2002c137.6 0 188.8 -6.40039 206.399 -22.4004c16 -17.5996 22.4004 -68.7998 22.4004 -206.399c0 -232 -14.4004 -243.2 -139.2 -120l-84.7998 83.2002l-88 -86.4004
c-68.7998 -67.2002 -91.2002 -83.2002 -107.2 -67.2002c-14.3994 14.4004 -4.7998 35.2002 51.2002 91.2002l70.4004 72h-59.2002c-48 0 -59.2002 6.40039 -59.2002 32s11.2002 32 59.2002 32h59.2002l-67.2002 68.7998c-46.4004 48 -65.6006 78.4004 -57.6006 96z
M315.2 292.8l60.7998 59.2002h-120h-120l60.7998 -59.2002l59.2002 -60.7998zM416 264c0 22.4004 -1.59961 40 -4.7998 40s-22.4004 -17.5996 -43.2002 -40l-36.7998 -40h41.5996c35.2002 0 43.2002 8 43.2002 40zM416 120c0 32 -8 40 -43.2002 40h-41.5996l36.7998 -40
c20.7998 -22.4004 40 -40 43.2002 -40s4.7998 17.5996 4.7998 40z" />
    <glyph glyph-name="uniF120" unicode="&#xf120;" 
d="M57.5996 388.8c8 24 36.8008 27.2002 193.601 27.2002c137.6 0 188.8 -6.40039 206.399 -22.4004c16 -17.5996 22.4004 -68.7998 22.4004 -206.399c0 -224 -16 -241.601 -123.2 -136l-68.7998 67.2002v-59.2002c0 -48 -6.40039 -59.2002 -32 -59.2002
s-32 11.2002 -32 59.2002v59.2002l-72 -70.4004c-56 -54.4004 -76.7998 -65.5996 -91.2002 -51.2002c-14.3994 14.4004 -3.2002 35.2002 51.2002 91.2002l70.4004 72h-59.2002c-48 0 -59.2002 6.40039 -59.2002 32s11.2002 32 59.2002 32h59.2002l-67.2002 68.7998
c-46.4004 48 -65.6006 78.4004 -57.6006 96zM224 312c0 32 -8 40 -43.2002 40h-41.5996l36.7998 -40c20.7998 -22.4004 40 -40 43.2002 -40s4.7998 17.5996 4.7998 40zM368 347.2c0 3.2002 -17.5996 4.7998 -40 4.7998c-32 0 -40 -8 -40 -43.2002v-41.5996l40 36.7998
c22.4004 20.7998 40 40 40 43.2002zM416 264c0 22.4004 -1.59961 40 -4.7998 40s-22.4004 -17.5996 -43.2002 -40l-36.7998 -40h41.5996c35.2002 0 43.2002 8 43.2002 40zM416 120c0 32 -8 40 -43.2002 40h-41.5996l36.7998 -40c20.7998 -22.4004 40 -40 43.2002 -40
s4.7998 17.5996 4.7998 40z" />
    <glyph glyph-name="uniF109" unicode="&#xf109;" 
d="M355.2 332.8c72 72 84.7998 76.7998 102.399 49.6006c4.80078 -9.60059 -30.3994 -57.6006 -80 -108.801c-88 -88 -89.5996 -92.7998 -89.5996 -182.399c0 -80 -3.2002 -91.2002 -32 -91.2002c-25.5996 0 -32 11.2002 -32 59.2002v59.2002l-72 -70.4004
c-56 -56 -76.7998 -65.5996 -91.2002 -51.2002c-16 16 0 40 72 112c89.6006 91.2002 91.2002 94.4004 91.2002 184c0 80 3.2002 91.2002 32 91.2002c25.5996 0 32 -11.2002 32 -59.2002v-60.7998z" />
    <glyph glyph-name="uniF108" unicode="&#xf108;" 
d="M232 208c105.6 105.6 198.4 190.4 206.4 187.2c38.3994 -12.7998 12.7998 -48 -166.4 -227.2c-152 -152 -195.2 -187.2 -211.2 -171.2s19.2002 59.2002 171.2 211.2z" />
    <glyph glyph-name="uniF13F" unicode="&#xf13f;" 
d="M52.7998 392c28.7998 33.5996 371.2 33.5996 404.8 1.59961c32 -33.5996 32 -369.6 0 -403.199c-33.5996 -32 -369.6 -32 -403.199 0c-30.4004 30.3994 -32 368 -1.60059 401.6zM312 288l62.4004 64h-139.2h-139.2v-64v-64h76.7998c68.7998 0 83.2002 6.40039 139.2 64z
M416 264c0 22.4004 -1.59961 40 -4.7998 40s-22.4004 -17.5996 -43.2002 -40l-36.7998 -40h41.5996c35.2002 0 43.2002 8 43.2002 40zM176 155.2c0 3.2002 -17.5996 4.7998 -40 4.7998c-32 0 -40 -8 -40 -43.2002v-41.5996l40 36.7998c22.4004 20.7998 40 40 40 43.2002z
M416 96v64h-76.7998c-68.7998 0 -83.2002 -6.40039 -139.2 -64l-62.4004 -64h139.2h139.2v64z" />
    <glyph glyph-name="uniF140" unicode="&#xf140;" 
d="M52.7998 392c28.7998 33.5996 371.2 33.5996 404.8 1.59961c32 -33.5996 32 -369.6 0 -403.199c-33.5996 -32 -369.6 -32 -403.199 0c-30.4004 30.3994 -32 368 -1.60059 401.6zM224 288c0 64 0 64 -64 64s-64 0 -64 -64s0 -64 64 -64s64 0 64 64zM368 347.2
c0 3.2002 -17.5996 4.7998 -40 4.7998c-32 0 -40 -8 -40 -43.2002v-41.5996l40 36.7998c22.4004 20.7998 40 40 40 43.2002zM416 264c0 22.4004 -1.59961 40 -4.7998 40s-22.4004 -17.5996 -43.2002 -40l-36.7998 -40h41.5996c35.2002 0 43.2002 8 43.2002 40zM176 155.2
c0 3.2002 -17.5996 4.7998 -40 4.7998c-32 0 -40 -8 -40 -43.2002v-41.5996l40 36.7998c22.4004 20.7998 40 40 40 43.2002zM416 96c0 64 0 64 -64 64s-64 0 -64 -64s0 -64 64 -64s64 0 64 64zM224 72c0 22.4004 -1.59961 40 -4.7998 40s-22.4004 -17.5996 -43.2002 -40
l-36.7998 -40h41.5996c35.2002 0 43.2002 8 43.2002 40z" />
    <glyph glyph-name="uniF10C" unicode="&#xf10c;" 
d="M336 312c48 48 92.7998 88 99.2002 88c38.3994 0 24 -44.7998 -36.7998 -105.6l-68.8008 -70.4004h59.2002c48 0 59.2002 -6.40039 59.2002 -32c0 -28.7998 -11.2002 -32 -91.2002 -32c-89.5996 0 -92.7998 -1.59961 -184 -91.2002c-72 -72 -96 -88 -112 -72
c-14.3994 14.4004 -4.7998 35.2002 51.2002 91.2002l70.4004 72h-59.2002c-48 0 -59.2002 6.40039 -59.2002 32c0 28.7998 11.2002 32 92.7998 32c91.2002 0 94.4004 1.59961 179.2 88z" />
    <glyph glyph-name="uniF10D" unicode="&#xf10d;" 
d="M355.2 332.8c72 72 84.7998 76.7998 102.399 49.6006c4.80078 -9.60059 -20.7998 -49.6006 -59.1992 -88l-68.8008 -70.4004h59.2002c48 0 59.2002 -6.40039 59.2002 -32c0 -27.2002 -11.2002 -32 -80 -32h-80v-80c0 -68.7998 -4.7998 -80 -32 -80
c-25.5996 0 -32 11.2002 -32 59.2002v59.2002l-72 -70.4004c-56 -54.4004 -76.7998 -65.5996 -91.2002 -51.2002c-14.3994 14.4004 -3.2002 35.2002 51.2002 91.2002l70.4004 72h-59.2002c-48 0 -59.2002 6.40039 -59.2002 32c0 27.2002 11.2002 32 80 32h80v80
c0 68.7998 4.7998 80 32 80c25.5996 0 32 -11.2002 32 -59.2002v-60.7998z" />
    <glyph glyph-name="uniF13E" unicode="&#xf13e;" 
d="M52.7998 392c28.7998 33.5996 371.2 33.5996 404.8 1.59961c32 -33.5996 32 -369.6 0 -403.199c-33.5996 -32 -369.6 -32 -403.199 0c-30.4004 30.3994 -32 368 -1.60059 401.6zM224 312c0 32 -8 40 -43.2002 40h-41.5996l36.7998 -40
c20.7998 -22.4004 40 -40 43.2002 -40s4.7998 17.5996 4.7998 40zM368 347.2c0 3.2002 -17.5996 4.7998 -40 4.7998c-32 0 -40 -8 -40 -43.2002v-41.5996l40 36.7998c22.4004 20.7998 40 40 40 43.2002zM155.2 132.8l60.7998 59.2002l-60.7998 59.2002l-59.2002 60.7998
v-120v-120zM416 188.8c0 62.4004 -1.59961 115.2 -4.7998 115.2s-28.7998 -25.5996 -59.2002 -56l-54.4004 -56l59.2002 -60.7998l59.2002 -59.2002v116.8zM224 72c0 22.4004 -1.59961 40 -4.7998 40s-22.4004 -17.5996 -43.2002 -40l-36.7998 -40h41.5996
c35.2002 0 43.2002 8 43.2002 40zM336 72c-20.7998 22.4004 -40 40 -43.2002 40s-4.7998 -17.5996 -4.7998 -40c0 -32 8 -40 43.2002 -40h41.5996z" />
    <glyph glyph-name="uniF132" unicode="&#xf132;" 
d="M32 198.4c0 174.399 1.59961 185.6 32 185.6s32 -11.2002 32 -176v-176h176c164.8 0 176 -1.59961 176 -32s-11.2002 -32 -185.6 -32c-139.2 0 -190.4 6.40039 -208 22.4004c-16 17.5996 -22.4004 68.7998 -22.4004 208z" />
    <glyph glyph-name="uniF139" unicode="&#xf139;" 
d="M52.7998 392c28.7998 33.5996 371.2 33.5996 404.8 1.59961c32 -33.5996 32 -369.6 0 -403.199c-33.5996 -32 -369.6 -32 -403.199 0c-30.4004 30.3994 -32 368 -1.60059 401.6zM416 288v64h-139.2h-139.2l62.4004 -64c56 -57.5996 70.4004 -64 139.2 -64h76.7998v64z
M144 264c-46.4004 49.5996 -48 49.5996 -48 0c0 -32 8 -40 43.2002 -40h41.5996zM312 96c-56 57.5996 -70.4004 64 -139.2 64h-76.7998v-64v-64h139.2h139.2zM416 120c0 32 -8 40 -43.2002 40h-41.5996l36.7998 -40c20.7998 -22.4004 40 -40 43.2002 -40
s4.7998 17.5996 4.7998 40z" />
    <glyph glyph-name="uniF13A" unicode="&#xf13a;" 
d="M52.7998 392c28.7998 33.5996 371.2 33.5996 404.8 1.59961c32 -33.5996 32 -369.6 0 -403.199c-33.5996 -32 -369.6 -32 -403.199 0c-30.4004 30.3994 -32 368 -1.60059 401.6zM224 312c0 32 -8 40 -43.2002 40h-41.5996l36.7998 -40
c20.7998 -22.4004 40 -40 43.2002 -40s4.7998 17.5996 4.7998 40zM416 288c0 64 0 64 -64 64s-64 0 -64 -64s0 -64 64 -64s64 0 64 64zM144 264c-46.4004 49.5996 -48 49.5996 -48 0c0 -32 8 -40 43.2002 -40h41.5996zM224 96c0 64 0 64 -64 64s-64 0 -64 -64s0 -64 64 -64
s64 0 64 64zM416 120c0 32 -8 40 -43.2002 40h-41.5996l36.7998 -40c20.7998 -22.4004 40 -40 43.2002 -40s4.7998 17.5996 4.7998 40zM336 72c-20.7998 22.4004 -40 40 -43.2002 40s-4.7998 -17.5996 -4.7998 -40c0 -32 8 -40 43.2002 -40h41.5996z" />
    <glyph glyph-name="uniF136" unicode="&#xf136;" 
d="M52.7998 392c28.7998 33.5996 371.2 33.5996 404.8 1.59961c32 -33.5996 32 -369.6 0 -403.199c-33.5996 -32 -369.6 -32 -403.199 0c-30.4004 30.3994 -32 368 -1.60059 401.6zM224 312c0 32 -8 40 -43.2002 40h-41.5996l36.7998 -40
c20.7998 -22.4004 40 -40 43.2002 -40s4.7998 17.5996 4.7998 40zM416 212.8v139.2h-64h-64v-76.7998c0 -68.7998 6.40039 -83.2002 64 -139.2l64 -62.4004v139.2zM224 108.8c0 68.7998 -6.40039 83.2002 -64 139.2l-64 62.4004v-139.2v-139.2h64h64v76.7998zM336 72
c-20.7998 22.4004 -40 40 -43.2002 40s-4.7998 -17.5996 -4.7998 -40c0 -32 8 -40 43.2002 -40h41.5996z" />
    <glyph glyph-name="uniF121" unicode="&#xf121;" 
d="M64 384c0 30.4004 11.2002 32 185.6 32c139.2 0 190.4 -6.40039 208 -22.4004c16 -17.5996 22.4004 -68.7998 22.4004 -208c0 -174.399 -1.59961 -185.6 -32 -185.6s-32 11.2002 -32 176v176h-176c-164.8 0 -176 1.59961 -176 32z" />
    <glyph glyph-name="uniF13B" unicode="&#xf13b;" 
d="M52.7998 392c28.7998 33.5996 371.2 33.5996 404.8 1.59961c32 -33.5996 32 -369.6 0 -403.199c-33.5996 -32 -369.6 -32 -403.199 0c-30.4004 30.3994 -32 368 -1.60059 401.6zM368 347.2c0 3.2002 -60.7998 4.7998 -136 4.7998h-136v-139.2v-140.8l136 136
c75.2002 75.2002 136 137.6 136 139.2zM416 168c0 75.2002 -1.59961 136 -4.7998 136c-1.60059 0 -64 -60.7998 -139.2 -136l-136 -136h140.8h139.2v136z" />
    <glyph glyph-name="uniF11A" unicode="&#xf11a;" 
d="M64 384c0 30.4004 11.2002 32 185.6 32c139.2 0 190.4 -6.40039 208 -22.4004c16 -17.5996 22.4004 -68.7998 22.4004 -208c0 -174.399 -1.59961 -185.6 -32 -185.6s-32 11.2002 -32 155.2v155.2l-64 -62.4004c-60.7998 -59.2002 -64 -68.7998 -64 -155.2
c0 -81.5996 -3.2002 -92.7998 -32 -92.7998c-25.5996 0 -32 11.2002 -32 59.2002v59.2002l-72 -70.4004c-56 -56 -76.7998 -65.5996 -91.2002 -51.2002c-16 16 0 40 72 112c84.7998 86.4004 91.2002 97.6006 91.2002 168v75.2002h-80c-68.7998 0 -80 4.7998 -80 32z
M368 347.2c0 3.2002 -17.5996 4.7998 -40 4.7998c-32 0 -40 -8 -40 -43.2002v-41.5996l40 36.7998c22.4004 20.7998 40 40 40 43.2002z" />
    <glyph glyph-name="uniF11C" unicode="&#xf11c;" 
d="M57.5996 388.8c8 24 36.8008 27.2002 193.601 27.2002c137.6 0 188.8 -6.40039 206.399 -22.4004c16 -17.5996 22.4004 -68.7998 22.4004 -206.399c0 -224 -16 -241.601 -123.2 -136l-68.7998 67.2002v-59.2002c0 -48 -6.40039 -59.2002 -32 -59.2002
s-32 11.2002 -32 59.2002v59.2002l-72 -70.4004c-56 -56 -76.7998 -65.5996 -91.2002 -51.2002c-16 16 0 38.4004 67.2002 107.2l86.4004 88l-83.2002 84.7998c-59.2002 60.7998 -81.6006 92.7998 -73.6006 112zM224 312c0 32 -8 40 -43.2002 40h-41.5996l36.7998 -40
c20.7998 -22.4004 40 -40 43.2002 -40s4.7998 17.5996 4.7998 40zM368 347.2c0 3.2002 -17.5996 4.7998 -40 4.7998c-32 0 -40 -8 -40 -43.2002v-41.5996l40 36.7998c22.4004 20.7998 40 40 40 43.2002zM416 188.8c0 62.4004 -1.59961 115.2 -4.7998 115.2
s-28.7998 -25.5996 -59.2002 -56l-54.4004 -56l59.2002 -60.7998l59.2002 -59.2002v116.8z" />
    <glyph glyph-name="uniF11B" unicode="&#xf11b;" 
d="M57.5996 388.8c8 24 36.8008 27.2002 193.601 27.2002c137.6 0 188.8 -6.40039 206.399 -22.4004c16 -17.5996 22.4004 -68.7998 22.4004 -206.399c0 -232 -14.4004 -243.2 -139.2 -120l-84.7998 83.2002l-88 -86.4004
c-68.7998 -68.7998 -91.2002 -83.2002 -107.2 -67.2002s-1.59961 38.4004 67.2002 107.2l86.4004 88l-83.2002 84.7998c-59.2002 60.7998 -81.6006 92.7998 -73.6006 112zM315.2 292.8l60.7998 59.2002h-120h-120l60.7998 -59.2002l59.2002 -60.7998zM416 188.8
c0 62.4004 -1.59961 115.2 -4.7998 115.2s-28.7998 -25.5996 -59.2002 -56l-54.4004 -56l59.2002 -60.7998l59.2002 -59.2002v116.8z" />
    <glyph glyph-name="uniF143" unicode="&#xf143;" 
d="M52.7998 392c28.7998 33.5996 371.2 33.5996 404.8 1.59961c32 -33.5996 32 -369.6 0 -403.199c-33.5996 -32 -369.6 -32 -403.199 0c-30.4004 30.3994 -32 368 -1.60059 401.6zM416 192v160h-160h-160v-160v-160h160h160v160z" />
    <glyph glyph-name="uniF137" unicode="&#xf137;" 
d="M52.7998 392c28.7998 33.5996 371.2 33.5996 404.8 1.59961c32 -33.5996 32 -369.6 0 -403.199c-33.5996 -32 -369.6 -32 -403.199 0c-30.4004 30.3994 -32 368 -1.60059 401.6zM416 288v64h-160h-160v-64v-64h160h160v64zM416 96v64h-160h-160v-64v-64h160h160v64z" />
    <glyph glyph-name="uniF124" unicode="&#xf124;" 
d="M52.7998 388.8c9.60059 4.7998 22.4004 9.60059 27.2002 9.60059c4.7998 1.59961 92.7998 -83.2002 196.8 -187.2c238.4 -238.4 238.4 -243.2 -16 -243.2c-137.6 0 -188.8 6.40039 -206.399 22.4004c-30.4004 30.3994 -33.6006 387.199 -1.60059 398.399zM240 168
c-75.2002 75.2002 -137.6 136 -139.2 136c-3.2002 0 -4.7998 -60.7998 -4.7998 -136v-136h139.2h140.8z" />
    <glyph glyph-name="uniF125" unicode="&#xf125;" 
d="M52.7998 388.8c9.60059 4.7998 22.4004 9.60059 27.2002 9.60059c3.2002 1.59961 38.4004 -28.8008 75.2002 -65.6006l68.7998 -67.2002v59.2002c0 48 6.40039 59.2002 32 59.2002c28.7998 0 32 -11.2002 32 -91.2002c0 -89.5996 1.59961 -94.3994 88 -180.8
c129.6 -129.6 118.4 -144 -115.2 -144c-137.6 0 -188.8 6.40039 -206.399 22.4004c-30.4004 30.3994 -33.6006 387.199 -1.60059 398.399zM224 108.8c0 68.7998 -6.40039 83.2002 -64 139.2l-64 62.4004v-139.2v-139.2h64h64v76.7998zM336 72
c-20.7998 22.4004 -40 40 -43.2002 40s-4.7998 -17.5996 -4.7998 -40c0 -32 8 -40 43.2002 -40h41.5996z" />
    <glyph glyph-name="uniF113" unicode="&#xf113;" 
d="M57.5996 388.8c8 24 35.2002 27.2002 193.601 27.2002c137.6 0 188.8 -6.40039 206.399 -22.4004c16 -17.5996 22.4004 -68.7998 22.4004 -206.399c0 -254.4 -4.7998 -254.4 -243.2 -14.4004c-140.8 139.2 -187.2 195.2 -179.2 216zM416 216v136h-139.2h-140.8l136 -136
c75.2002 -75.2002 137.6 -136 139.2 -136c3.2002 0 4.7998 60.7998 4.7998 136z" />
    <glyph glyph-name="uniF114" unicode="&#xf114;" 
d="M57.5996 388.8c8 24 36.8008 27.2002 193.601 27.2002c137.6 0 188.8 -6.40039 206.399 -22.4004c16 -17.5996 22.4004 -68.7998 22.4004 -206.399c0 -224 -16 -241.601 -123.2 -136l-68.7998 67.2002v-59.2002c0 -48 -6.40039 -59.2002 -32 -59.2002
c-28.7998 0 -32 11.2002 -32 91.2002c0 89.5996 -1.59961 94.3994 -88 180.8c-62.4004 64 -86.4004 97.5996 -78.4004 116.8zM224 312c0 32 -8 40 -43.2002 40h-41.5996l36.7998 -40c20.7998 -22.4004 40 -40 43.2002 -40s4.7998 17.5996 4.7998 40zM416 212.8v139.2h-64
h-64v-76.7998c0 -68.7998 6.40039 -83.2002 64 -139.2l64 -62.4004v139.2z" />
    <glyph glyph-name="uniF129" unicode="&#xf129;" 
d="M52.7998 388.8c9.60059 4.7998 22.4004 9.60059 27.2002 9.60059c3.2002 1.59961 38.4004 -28.8008 75.2002 -65.6006l68.7998 -67.2002v59.2002c0 48 6.40039 59.2002 32 59.2002c27.2002 0 32 -11.2002 32 -80v-80h80c68.7998 0 80 -4.7998 80 -32
c0 -25.5996 -11.2002 -32 -59.2002 -32h-59.2002l67.2002 -68.7998c105.601 -107.2 88 -123.2 -136 -123.2c-137.6 0 -188.8 6.40039 -206.399 22.4004c-30.4004 30.3994 -33.6006 387.199 -1.60059 398.399zM144 264c-46.4004 49.5996 -48 49.5996 -48 0
c0 -32 8 -40 43.2002 -40h41.5996zM224 96c0 64 0 64 -64 64s-64 0 -64 -64s0 -64 64 -64s64 0 64 64zM336 72c-20.7998 22.4004 -40 40 -43.2002 40s-4.7998 -17.5996 -4.7998 -40c0 -32 8 -40 43.2002 -40h41.5996z" />
    <glyph glyph-name="uniF128" unicode="&#xf128;" 
d="M52.7998 388.8c9.60059 4.7998 22.4004 9.60059 27.2002 9.60059c4.7998 1.59961 48 -38.4004 96 -86.4004c84.7998 -86.4004 88 -88 179.2 -88c81.5996 0 92.7998 -3.2002 92.7998 -32c0 -25.5996 -11.2002 -32 -59.2002 -32h-59.2002l67.2002 -68.7998
c105.601 -107.2 88 -123.2 -136 -123.2c-137.6 0 -188.8 6.40039 -206.399 22.4004c-30.4004 30.3994 -33.6006 387.199 -1.60059 398.399zM144 264c-46.4004 49.5996 -48 49.5996 -48 0c0 -32 8 -40 43.2002 -40h41.5996zM312 96c-56 57.5996 -70.4004 64 -139.2 64
h-76.7998v-64v-64h139.2h139.2z" />
    <glyph glyph-name="uniF118" unicode="&#xf118;" 
d="M57.5996 388.8c8 24 36.8008 27.2002 193.601 27.2002c137.6 0 188.8 -6.40039 206.399 -22.4004c16 -17.5996 22.4004 -68.7998 22.4004 -206.399c0 -224 -16 -241.601 -123.2 -136l-68.7998 67.2002v-59.2002c0 -48 -6.40039 -59.2002 -32 -59.2002
c-27.2002 0 -32 11.2002 -32 80v80h-80c-68.7998 0 -80 4.7998 -80 32c0 25.5996 11.2002 32 59.2002 32h59.2002l-67.2002 68.7998c-46.4004 48 -65.6006 78.4004 -57.6006 96zM224 312c0 32 -8 40 -43.2002 40h-41.5996l36.7998 -40c20.7998 -22.4004 40 -40 43.2002 -40
s4.7998 17.5996 4.7998 40zM416 288c0 64 0 64 -64 64s-64 0 -64 -64s0 -64 64 -64s64 0 64 64zM416 120c0 32 -8 40 -43.2002 40h-41.5996l36.7998 -40c20.7998 -22.4004 40 -40 43.2002 -40s4.7998 17.5996 4.7998 40z" />
    <glyph glyph-name="uniF117" unicode="&#xf117;" 
d="M57.5996 388.8c8 24 36.8008 27.2002 193.601 27.2002c137.6 0 188.8 -6.40039 206.399 -22.4004c16 -17.5996 22.4004 -68.7998 22.4004 -206.399c0 -233.601 -14.4004 -244.8 -144 -115.2c-86.4004 86.4004 -91.2002 88 -180.8 88c-80 0 -91.2002 3.2002 -91.2002 32
c0 25.5996 11.2002 32 59.2002 32h59.2002l-67.2002 68.7998c-46.4004 48 -65.6006 78.4004 -57.6006 96zM416 288v64h-139.2h-139.2l62.4004 -64c56 -57.5996 70.4004 -64 139.2 -64h76.7998v64zM416 120c0 32 -8 40 -43.2002 40h-41.5996l36.7998 -40
c20.7998 -22.4004 40 -40 43.2002 -40s4.7998 17.5996 4.7998 40z" />
    <glyph glyph-name="uniF106" unicode="&#xf106;" 
d="M54.4004 382.4c19.1992 28.7998 30.3994 22.3994 121.6 -70.4004c84.7998 -86.4004 88 -88 179.2 -88c81.5996 0 92.7998 -3.2002 92.7998 -32c0 -25.5996 -11.2002 -32 -59.2002 -32h-59.2002l70.4004 -72c56 -56 65.5996 -76.7998 51.2002 -91.2002
c-16 -16 -40 0 -112 72c-91.2002 89.6006 -94.4004 91.2002 -184 91.2002c-80 0 -91.2002 3.2002 -91.2002 32c0 25.5996 11.2002 32 59.2002 32h59.2002l-68.8008 70.4004c-38.3994 38.3994 -64 78.3994 -59.1992 88z" />
    <glyph glyph-name="uniF107" unicode="&#xf107;" 
d="M54.4004 382.4c17.5996 27.1992 27.1992 22.3994 100.8 -49.6006l68.7998 -67.2002v59.2002c0 48 6.40039 59.2002 32 59.2002c27.2002 0 32 -11.2002 32 -80v-80h80c68.7998 0 80 -4.7998 80 -32c0 -25.5996 -11.2002 -32 -59.2002 -32h-59.2002l70.4004 -72
c54.4004 -56 65.5996 -76.7998 51.2002 -91.2002c-14.4004 -14.3994 -35.2002 -3.2002 -91.2002 51.2002l-72 70.4004v-59.2002c0 -48 -6.40039 -59.2002 -32 -59.2002c-27.2002 0 -32 11.2002 -32 80v80h-80c-68.7998 0 -80 4.7998 -80 32c0 25.5996 11.2002 32 59.2002 32
h59.2002l-68.8008 70.4004c-38.3994 38.3994 -64 78.3994 -59.1992 88z" />
    <glyph glyph-name="uniF103" unicode="&#xf103;" 
d="M54.4004 382.4c17.5996 27.1992 27.1992 22.3994 100.8 -49.6006l68.7998 -67.2002v59.2002c0 48 6.40039 59.2002 32 59.2002c28.7998 0 32 -11.2002 32 -91.2002c0 -89.5996 1.59961 -92.7998 91.2002 -184c72 -72 88 -96 72 -112
c-14.4004 -14.3994 -35.2002 -4.7998 -91.2002 51.2002l-72 70.4004v-59.2002c0 -48 -6.40039 -59.2002 -32 -59.2002c-28.7998 0 -32 11.2002 -32 91.2002c0 89.5996 -1.59961 94.3994 -89.5996 182.399c-49.6006 51.2002 -84.8008 99.2002 -80 108.801z" />
    <glyph glyph-name="uniF102" unicode="&#xf102;" 
d="M54.4004 382.4c6.39941 9.59961 16 17.5996 22.3994 17.5996c6.40039 0 97.6006 -86.4004 203.2 -192c152 -152 187.2 -195.2 171.2 -211.2s-59.2002 19.2002 -214.4 174.4c-112 112 -188.8 200 -182.399 211.2z" />
    <glyph glyph-name="uniF12F" unicode="&#xf12f;" 
d="M355.2 332.8c72 72 84.7998 76.7998 102.399 49.6006c4.80078 -9.60059 -20.7998 -49.6006 -59.1992 -88l-68.8008 -70.4004h59.2002c48 0 59.2002 -6.40039 59.2002 -32c0 -27.2002 -11.2002 -32 -80 -32h-80v-64v-64h80c68.7998 0 80 -4.7998 80 -32
c0 -30.4004 -11.2002 -32 -185.6 -32c-139.2 0 -190.4 6.40039 -208 22.4004c-16 17.5996 -22.4004 68.7998 -22.4004 208c0 174.399 1.59961 185.6 32 185.6c27.2002 0 32 -11.2002 32 -80v-80h64h64v80c0 68.7998 4.7998 80 32 80c25.5996 0 32 -11.2002 32 -59.2002
v-60.7998zM176 155.2c0 3.2002 -17.5996 4.7998 -40 4.7998c-32 0 -40 -8 -40 -43.2002v-41.5996l40 36.7998c22.4004 20.7998 40 40 40 43.2002zM224 72c0 22.4004 -1.59961 40 -4.7998 40s-22.4004 -17.5996 -43.2002 -40l-36.7998 -40h41.5996
c35.2002 0 43.2002 8 43.2002 40z" />
    <glyph glyph-name="uniF12E" unicode="&#xf12e;" 
d="M336 312c48 48 92.7998 88 99.2002 88c38.3994 0 24 -44.7998 -36.7998 -105.6l-68.8008 -70.4004h59.2002c48 0 59.2002 -6.40039 59.2002 -32c0 -28.7998 -11.2002 -32 -92.7998 -32c-86.4004 0 -96 -3.2002 -155.2 -64l-62.4004 -64h155.2
c144 0 155.2 -1.59961 155.2 -32s-11.2002 -32 -185.6 -32c-139.2 0 -190.4 6.40039 -208 22.4004c-16 17.5996 -22.4004 68.7998 -22.4004 208c0 174.399 1.59961 185.6 32 185.6c27.2002 0 32 -11.2002 32 -80v-80h76.7998c72 0 81.6006 6.40039 163.2 88zM176 155.2
c0 3.2002 -17.5996 4.7998 -40 4.7998c-32 0 -40 -8 -40 -43.2002v-41.5996l40 36.7998c22.4004 20.7998 40 40 40 43.2002z" />
    <glyph glyph-name="uniF11E" unicode="&#xf11e;" 
d="M64 384c0 30.4004 11.2002 32 185.6 32c139.2 0 190.4 -6.40039 208 -22.4004c16 -17.5996 22.4004 -68.7998 22.4004 -208c0 -174.399 -1.59961 -185.6 -32 -185.6c-27.2002 0 -32 11.2002 -32 80v80h-64h-64v-80c0 -68.7998 -4.7998 -80 -32 -80
c-25.5996 0 -32 11.2002 -32 59.2002v59.2002l-72 -70.4004c-56 -54.4004 -76.7998 -65.5996 -91.2002 -51.2002c-14.3994 14.4004 -3.2002 35.2002 51.2002 91.2002l70.4004 72h-59.2002c-48 0 -59.2002 6.40039 -59.2002 32c0 27.2002 11.2002 32 80 32h80v64v64h-80
c-68.7998 0 -80 4.7998 -80 32zM368 347.2c0 3.2002 -17.5996 4.7998 -40 4.7998c-32 0 -40 -8 -40 -43.2002v-41.5996l40 36.7998c22.4004 20.7998 40 40 40 43.2002zM416 264c0 22.4004 -1.59961 40 -4.7998 40s-22.4004 -17.5996 -43.2002 -40l-36.7998 -40h41.5996
c35.2002 0 43.2002 8 43.2002 40z" />
    <glyph glyph-name="uniF11D" unicode="&#xf11d;" 
d="M64 384c0 30.4004 11.2002 32 185.6 32c139.2 0 190.4 -6.40039 208 -22.4004c16 -17.5996 22.4004 -68.7998 22.4004 -208c0 -174.399 -1.59961 -185.6 -32 -185.6c-27.2002 0 -32 11.2002 -32 80v80h-75.2002c-70.3994 0 -81.5996 -6.40039 -168 -91.2002
c-72 -72 -96 -88 -112 -72c-14.3994 14.4004 -4.7998 35.2002 51.2002 91.2002l70.4004 72h-59.2002c-48 0 -59.2002 6.40039 -59.2002 32c0 28.7998 11.2002 32 92.7998 32c86.4004 0 96 3.2002 155.2 64l62.4004 64h-155.2c-144 0 -155.2 1.59961 -155.2 32zM416 264
c0 22.4004 -1.59961 40 -4.7998 40s-22.4004 -17.5996 -43.2002 -40l-36.7998 -40h41.5996c35.2002 0 43.2002 8 43.2002 40z" />
    <glyph glyph-name="uniF13C" unicode="&#xf13c;" 
d="M52.7998 392c28.7998 33.5996 371.2 33.5996 404.8 1.59961c32 -33.5996 32 -369.6 0 -403.199c-33.5996 -32 -369.6 -32 -403.199 0c-30.4004 30.3994 -32 368 -1.60059 401.6zM224 275.2v76.7998h-64h-64v-139.2v-139.2l64 62.4004c57.5996 56 64 70.4004 64 139.2z
M368 347.2c0 3.2002 -17.5996 4.7998 -40 4.7998c-32 0 -40 -8 -40 -43.2002v-41.5996l40 36.7998c22.4004 20.7998 40 40 40 43.2002zM416 168c0 75.2002 -1.59961 136 -4.7998 136s-32 -27.2002 -64 -60.7998c-51.2002 -52.7998 -59.2002 -70.4004 -59.2002 -136v-75.2002
h64h64v136zM224 72c0 22.4004 -1.59961 40 -4.7998 40s-22.4004 -17.5996 -43.2002 -40l-36.7998 -40h41.5996c35.2002 0 43.2002 8 43.2002 40z" />
  </font>
</defs>
</svg>
