<?xml version="1.0" encoding="UTF-8" standalone="no"?>
<!-- Created with Inkscape (http://www.inkscape.org/) -->

<svg
   xmlns:dc="http://purl.org/dc/elements/1.1/"
   xmlns:cc="http://creativecommons.org/ns#"
   xmlns:rdf="http://www.w3.org/1999/02/22-rdf-syntax-ns#"
   xmlns:svg="http://www.w3.org/2000/svg"
   xmlns="http://www.w3.org/2000/svg"
   xmlns:sodipodi="http://sodipodi.sourceforge.net/DTD/sodipodi-0.dtd"
   xmlns:inkscape="http://www.inkscape.org/namespaces/inkscape"
   id="svg2"
   version="1.1"
   inkscape:version="0.48.4 r9939"
   width="320"
   height="160"
   sodipodi:docname="cos.png">
  <metadata
     id="metadata8">
    <rdf:RDF>
      <cc:Work
         rdf:about="">
        <dc:format>image/svg+xml</dc:format>
        <dc:type
           rdf:resource="http://purl.org/dc/dcmitype/StillImage" />
        <dc:title></dc:title>
      </cc:Work>
    </rdf:RDF>
  </metadata>
  <defs
     id="defs6" />
  <sodipodi:namedview
     pagecolor="#ffffff"
     bordercolor="#666666"
     borderopacity="1"
     objecttolerance="10"
     gridtolerance="10"
     guidetolerance="10"
     inkscape:pageopacity="0"
     inkscape:pageshadow="2"
     inkscape:window-width="1280"
     inkscape:window-height="744"
     id="namedview4"
     showgrid="false"
     inkscape:zoom="2.1961914"
     inkscape:cx="160"
     inkscape:cy="80"
     inkscape:window-x="0"
     inkscape:window-y="27"
     inkscape:window-maximized="1"
     inkscape:current-layer="svg2" />
  <path
     inkscape:connector-curvature="0"
     id="path3190"
     d="m 102.23546,24.963457 c -1.2455,-0.500373 -2.696867,-2.046849 -3.225254,-3.436613 -2.090234,-5.497733 3.013564,-10.608905 8.507724,-8.520026 5.21984,1.984578 5.1763,10.018341 -0.0651,12.011115 -1.42066,0.540137 -2.66623,0.953543 -2.76793,0.918681 -0.10169,-0.03486 -1.20395,-0.472783 -2.44944,-0.973157 z"
     style="fill:#fafa03" />
  <path
     inkscape:connector-curvature="0"
     id="path3188"
     d="m 111.43165,80.75 c -7.31372,-6.716507 -6.61973,-21.114798 1.26724,-26.291565 3.58951,-2.356045 11.17427,-2.426786 14.66921,-0.136815 4.5674,2.992676 6.13293,6.479941 6.12085,13.634401 C 133.47104,78.565493 128.76007,84 119.58102,84 c -3.80885,0 -5.22566,-0.565026 -8.14937,-3.25 z m 14.46949,-3.351447 c 4.11739,-5.234418 3.90772,-14.6806 -0.42196,-19.010281 -8.79681,-8.796806 -19.2854,8.960598 -11.29368,19.120428 2.80163,3.561685 8.87227,3.504611 11.71564,-0.110147 z m 14.66744,5.275251 c -1.2371,-0.90459 -1.60251,-1.99153 -1.14943,-3.419063 0.61403,-1.934645 0.869,-1.986051 3.37255,-0.679965 5.65787,2.951675 10.7184,1.050655 10.03506,-3.769734 -0.22036,-1.554451 -1.84355,-3.122949 -4.98477,-4.816808 C 140.64414,66.106899 139,64.225087 139,59.868065 c 0,-3.957079 1.71545,-5.829943 6.70083,-7.315723 C 149.31294,51.475836 156,53.739362 156,56.038544 c 0,2.257929 -0.55513,2.3611 -4.7799,0.888339 C 147.21025,55.529042 144,57.12699 144,60.520789 c 0,1.99004 1.12019,3.015893 5.96235,5.460205 3.27929,1.655381 6.42929,3.882275 7,4.948653 1.16322,2.173499 1.35415,6.081997 0.41647,8.525551 -1.52719,3.979782 -12.81389,6.140813 -16.81024,3.218606 z"
     style="fill:#86d167" />
  <path
     inkscape:connector-curvature="0"
     id="path3186"
     d="m 82.5,80.158321 c -4.080756,-2.494978 -5.109724,-3.930148 -6.473134,-9.02851 -3.37979,-12.638452 6.790295,-23.410309 18.998745,-20.122915 4.348355,1.170891 5.210149,1.993604 4.051718,3.867984 -0.613196,0.992171 -1.687954,1.037784 -4.787444,0.203178 -5.125659,-1.380197 -9.853028,0.149877 -11.67993,3.780359 -6.044334,12.011513 2.47178,23.287637 13.342209,17.66632 2.541885,-1.31446 2.91797,-1.305545 3.45034,0.08179 1.013086,2.640052 0.703756,3.160782 -2.551727,4.29565 C 92.134473,82.546287 85.875065,82.221839 82.5,80.158321 z M 163,80.606989 C 163,79.296728 165.0303,78 167.08179,78 167.5868,78 168,78.9 168,80 c 0,1.466667 -0.66667,2 -2.5,2 -1.47022,0 -2.5,-0.573799 -2.5,-1.393011 z m 19,-9.996205 c 0,-13.117109 -1.21123,-15.944117 -6.83126,-15.944117 -5.4641,0 -7.16874,2.585165 -7.16874,10.871743 0,6.916223 -0.10798,7.249077 -2.5,7.706341 l -2.5,0.477905 0,-11.361328 C 163,52.498667 163.2163,51 164.63976,51 c 0.90186,0 2.21122,0.781526 2.90968,1.736725 1.19677,1.636688 1.3964,1.622287 3.46565,-0.25 2.72976,-2.469916 10.13406,-2.566711 12.78555,-0.167144 1.66674,1.508378 2.10412,1.476617 5.96394,-0.433069 4.99894,-2.473278 8.91508,-1.920404 12.35984,1.74494 2.20183,2.342827 2.40121,3.47272 2.726,15.448127 L 205.20085,82 202.60042,82 200,82 200,70.610784 c 0,-13.23223 -1.19061,-15.944117 -7,-15.944117 -5.80939,0 -7,2.711887 -7,15.944117 C 186,81.333333 185.88293,82 184,82 c -1.88293,0 -2,-0.666667 -2,-11.389216 z M 217,68.5 217,55 l -2.5,0 c -1.83333,0 -2.5,-0.533333 -2.5,-2 0,-1.703704 0.66667,-2 4.5,-2 l 4.5,0 0,15.5 c 0,14.833333 -0.086,15.5 -2,15.5 -1.90123,0 -2,-0.666667 -2,-13.5 z m 18.5,11.658321 c -4.08076,-2.494978 -5.10972,-3.930148 -6.47313,-9.02851 -3.37979,-12.638452 6.79029,-23.410309 18.99874,-20.122915 4.34836,1.170891 5.21015,1.993604 4.05172,3.867984 -0.6132,0.992171 -1.68796,1.037784 -4.78745,0.203178 -5.12565,-1.380197 -9.85302,0.149877 -11.67992,3.780359 -6.04434,12.011513 2.47177,23.287637 13.3422,17.66632 2.54189,-1.31446 2.91797,-1.305545 3.45034,0.08179 1.01309,2.640052 0.70376,3.160782 -2.55172,4.29565 -4.71631,1.644112 -10.97571,1.319664 -14.35078,-0.743854 z M 145,79 c -1.14125,-0.737533 -0.73627,-0.973037 1.6933,-0.984687 2.15458,-0.01033 3.69965,-0.738246 4.75,-2.237819 C 152.65961,74.040961 153,73.916012 153,75.206065 153,78.908079 148.30392,81.135157 145,79 z m -30.44236,-0.906741 c -0.30822,-0.498708 0.34022,-0.671224 1.44098,-0.383369 2.33499,0.610613 2.63015,1.29011 0.5604,1.29011 -0.79254,0 -1.69316,-0.408034 -2.00138,-0.906741 z M 127.16997,72 c 0.0162,-0.825 0.38968,-2.625 0.83003,-4 0.64363,-2.009731 0.8064,-2.107785 0.83003,-0.5 0.0162,1.1 -0.35734,2.9 -0.83003,4 -0.52653,1.22531 -0.84804,1.418983 -0.83003,0.5 z m -21.56371,-7.486825 c 0.32302,-2.742755 1.19576,-6.16343 1.93941,-7.601501 2.8672,-5.544543 10.64519,-8.112246 16.79267,-5.543665 4.11985,1.721382 5.0736,3.119308 1.09656,1.60724 -5.57168,-2.118348 -11.75652,-0.592309 -15.82655,3.905022 -1.03781,1.146766 -2.49498,4.455336 -3.23817,7.352379 l -1.35124,5.26735 0.58732,-4.986825 z m 45.65982,2.067171 c -2.32866,-1.181502 -4.80366,-2.743769 -5.5,-3.471703 -0.69634,-0.727935 1.06457,-0.158728 3.91315,1.264904 2.84858,1.423632 5.46264,3.046979 5.80902,3.607437 0.34638,0.560459 0.49073,0.957936 0.32077,0.883282 -0.16996,-0.07465 -2.21428,-1.102418 -4.54294,-2.28392 z M 138,56.078817 c 0,-4.282284 7.3273,-6.785755 14,-4.78329 l 4.5,1.350442 -6.83213,-0.07298 c -6.28829,-0.06718 -7.02458,0.150353 -9.25,2.732779 C 138.24057,57.832366 138,57.909282 138,56.078817 z m 78.38854,-12.50868 c -0.99567,-2.594671 0.39988,-4.739185 2.85699,-4.390274 C 220.89826,39.414553 221.5,40.167272 221.5,42 c 0,1.832728 -0.60174,2.585447 -2.25447,2.820137 -1.35228,0.192025 -2.49559,-0.308199 -2.85699,-1.25 z"
     style="fill:#0694f5" />
  <path
     inkscape:connector-curvature="0"
     id="path3184"
     d="m 138.45888,81.933469 c -0.36253,-0.586592 -0.44468,-1.281 -0.18255,-1.543128 0.26212,-0.262129 0.74306,0.21781 1.06875,1.066531 0.67618,1.762107 0.0999,2.072058 -0.8862,0.476597 z M 109.87244,80.25 c -1.24387,-1.586056 -1.2085,-1.621426 0.37756,-0.377555 0.9625,0.754844 1.75,1.542344 1.75,1.75 0,0.823034 -0.82119,0.293303 -2.12756,-1.372445 z m 12.21089,-0.510657 c 0.22917,-0.143361 1.54167,-1.155861 2.91667,-2.25 L 127.5,75.5 l -1.90499,2.25 c -1.04774,1.2375 -2.36024,2.25 -2.91666,2.25 -0.55643,0 -0.82418,-0.117296 -0.59502,-0.260657 z m 19.42375,-1.727889 c -0.35034,-0.56686 0.0511,-0.734507 0.94098,-0.393011 C 144.18048,78.283234 144.49745,79 143.05902,79 c -0.51754,0 -1.21592,-0.444846 -1.55194,-0.988546 z M 150.87244,72.25 C 149.62857,70.663944 149.66394,70.628574 151.25,71.872445 152.91575,73.178814 153.44548,74 152.62244,74 c -0.20765,0 -0.99515,-0.7875 -1.75,-1.75 z M 111.19495,68.5 c 0.0204,-1.65 0.2445,-2.203936 0.49804,-1.230968 0.25354,0.972967 0.23687,2.322967 -0.037,3 C 111.38201,70.946064 111.17457,70.15 111.19495,68.5 z m 27,-8 c 0.0204,-1.65 0.2445,-2.203936 0.49804,-1.230968 0.25354,0.972967 0.23687,2.322967 -0.0371,3 C 138.38201,62.946064 138.17457,62.15 138.19495,60.5 z M 129.40499,55.75 127.5,53.5 l 2.25,1.904988 C 131.86444,57.195206 132.45524,58 131.65499,58 c -0.18976,0 -1.20226,-1.0125 -2.25,-2.25 z m 18.40751,0.566886 c 0.72187,-0.288871 1.58437,-0.253344 1.91667,0.07895 0.33229,0.332292 -0.25834,0.568641 -1.3125,0.52522 -1.16495,-0.04798 -1.4019,-0.284941 -0.60417,-0.604167 z M 155,54 c -0.90129,-0.58246 -1.02463,-0.975486 -0.30902,-0.984687 0.65504,-0.0084 1.4691,0.434687 1.80902,0.984687 0.7673,1.241525 0.42112,1.241525 -1.5,0 z"
     style="fill:#71b367" />
  <path
     inkscape:connector-curvature="0"
     id="path3182"
     d="m 181.38176,70.5 c 0.002,-6.6 0.16382,-9.169866 0.35965,-5.710812 0.19583,3.459053 0.19422,8.859053 -0.004,12 C 181.54001,79.930134 181.37979,77.1 181.38176,70.5 z m 5,0 c 0.002,-6.6 0.16382,-9.169866 0.35965,-5.710812 0.19583,3.459053 0.19422,8.859053 -0.004,12 C 186.54001,79.930134 186.37979,77.1 186.38176,70.5 z m 30.0128,-2 c 0.002,-7.7 0.15853,-10.717812 0.34883,-6.70625 0.1903,4.011563 0.18902,10.311563 -0.003,14 C 216.5487,79.482188 216.393,76.2 216.39456,68.5 z m 5.01023,-2 c 0.001,-8.8 0.15425,-12.266133 0.33996,-7.702518 0.18572,4.563614 0.18468,11.763614 -0.002,16 C 221.55547,79.033867 221.40352,75.3 221.40479,66.5 z M 118,79 c 0,-0.55 1.09234,-1 2.42742,-1 1.43543,0 3.28012,-1.084033 4.514,-2.652662 1.14763,-1.458965 2.36009,-2.379157 2.69438,-2.044872 C 128.66903,74.335696 122.27626,80 120.07692,80 118.93462,80 118,79.55 118,79 z m 20.13131,0 c -0.15227,-2.268503 1.46895,-4.455817 2.30271,-3.106763 C 140.81023,76.501957 140.67447,77 140.13234,77 c -0.54213,0 -1.19149,0.7875 -1.44301,1.75 -0.32404,1.239977 -0.48667,1.312838 -0.55802,0.25 z m 25.03899,-2.612428 c 0.2406,-2.10722 0.93775,-2.973929 2.5797,-3.207123 1.83248,-0.260254 2.25,0.157265 2.25,2.25 C 168,76.843702 167.5868,78 167.08179,78 c -0.50502,0 -1.66588,0.286907 -2.5797,0.637572 -1.35048,0.518226 -1.59977,0.09706 -1.33179,-2.25 z M 80.157895,67 c 0,-1.375 0.226973,-1.9375 0.504386,-1.25 0.277412,0.6875 0.277412,1.8125 0,2.5 -0.277413,0.6875 -0.504386,0.125 -0.504386,-1.25 z m 152.999995,0 c 0,-1.375 0.22698,-1.9375 0.50439,-1.25 0.27741,0.6875 0.27741,1.8125 0,2.5 -0.27741,0.6875 -0.50439,0.125 -0.50439,-1.25 z m -96.07894,-8.583333 c 0.048,-1.164943 0.28494,-1.4019 0.60416,-0.604167 0.28887,0.721875 0.25335,1.584375 -0.0789,1.916667 -0.3323,0.332291 -0.56864,-0.258334 -0.52522,-1.3125 z M 89.8125,54.316886 c 0.721875,-0.288871 1.584375,-0.253344 1.916667,0.07895 0.332291,0.332292 -0.258334,0.568641 -1.3125,0.52522 -1.164943,-0.04798 -1.4019,-0.284941 -0.604167,-0.604167 z m 153,0 c 0.72187,-0.288871 1.58437,-0.253344 1.91667,0.07895 0.33229,0.332292 -0.25834,0.568641 -1.3125,0.52522 -1.16495,-0.04798 -1.4019,-0.284941 -0.60417,-0.604167 z"
     style="fill:#076dd0" />
  <path
     inkscape:connector-curvature="0"
     id="path3180"
     d="m 118.25,84.310674 c 0.9625,-0.251527 2.5375,-0.251527 3.5,0 0.9625,0.251528 0.175,0.457323 -1.75,0.457323 -1.925,0 -2.7125,-0.205795 -1.75,-0.457323 z m 27,0 c 0.9625,-0.251527 2.5375,-0.251527 3.5,0 0.9625,0.251528 0.175,0.457323 -1.75,0.457323 -1.925,0 -2.7125,-0.205795 -1.75,-0.457323 z M 168.232,76 c 0,-1.925 0.2058,-2.7125 0.45733,-1.75 0.25152,0.9625 0.25152,2.5375 0,3.5 C 168.4378,78.7125 168.232,77.925 168.232,76 z M 123,76.622445 c 0,-0.207656 0.7875,-0.995156 1.75,-1.75 1.58606,-1.243871 1.62143,-1.208501 0.37756,0.377555 C 123.82119,76.915748 123,77.445479 123,76.622445 z m 35.07895,-1.205778 c 0.048,-1.164943 0.28494,-1.4019 0.60416,-0.604167 0.28887,0.721875 0.25335,1.584375 -0.0789,1.916667 -0.3323,0.332291 -0.56864,-0.258334 -0.52522,-1.3125 z M 100.50708,26.011454 c -0.35034,-0.56686 0.0511,-0.734507 0.94098,-0.393011 C 103.18048,26.283234 103.49745,27 102.05902,27 c -0.51754,0 -1.21592,-0.444846 -1.55194,-0.988546 z m -3.048199,-3.077985 c -0.362533,-0.586592 -0.444683,-1.281 -0.182555,-1.543128 0.262128,-0.262129 0.743066,0.21781 1.068751,1.066531 0.676184,1.762107 0.09985,2.072058 -0.886196,0.476597 z m 14.105409,-0.226597 c 0.37553,-0.986221 0.93469,-1.541221 1.24258,-1.233333 0.30789,0.307887 6.4e-4,1.114794 -0.68278,1.793128 -0.98762,0.980267 -1.10248,0.865403 -0.5598,-0.559795 z M 97.342711,14.761051 c 0.08683,-1.467806 0.539701,-2.27705 1.010914,-1.806403 0.471454,0.47089 0.401036,1.661332 -0.15729,2.659004 -0.869537,1.553776 -0.988916,1.43454 -0.853624,-0.852601 z m 14.221579,0.532077 c -0.54268,-1.425198 -0.42782,-1.540062 0.5598,-0.559795 0.68342,0.678334 0.99067,1.485241 0.68278,1.793128 -0.30789,0.307888 -0.86705,-0.247112 -1.24258,-1.233333 z M 108,12 c -0.90129,-0.58246 -1.02463,-0.975486 -0.30902,-0.984687 0.65504,-0.0084 1.4691,0.434687 1.80902,0.984687 0.7673,1.241525 0.42112,1.241525 -1.5,0 z m -6.45729,-0.930902 c -0.31644,-0.511996 -0.19299,-1.1672007 0.27431,-1.456011 0.46731,-0.2888103 0.84965,0.1300954 0.84965,0.930902 0,1.686167 -0.31534,1.833491 -1.12396,0.525109 z"
     style="fill:#65554d" />
  <path
     inkscape:connector-curvature="0"
     id="path3176"
     d="M 135.63726,147.59487 C 126.85685,144.32907 122.47919,136.44776 122.53154,124 c 0.0531,-12.62061 5.29167,-20.35564 15.66501,-23.13008 5.55808,-1.486563 13.26386,-0.10239 17.931,3.2209 8.38094,5.96776 10.67888,25.63846 4.1681,35.67958 -4.85988,7.49505 -16.02164,11.03684 -24.65839,7.82447 z m 15.34539,-8.42367 c 3.22358,-3.22359 5.0062,-8.62577 5.0062,-15.1712 0,-10.76756 -4.55728,-17 -12.43072,-17 -8.21241,0 -12.76741,6.39373 -12.67988,17.7984 0.0949,12.36411 3.56337,17.2016 12.33353,17.2016 4.09139,0 5.42899,-0.48692 7.77087,-2.8288 z m 24.26735,8.16652 c -4.44163,-1.57222 -4.8938,-2.5142 -3.26426,-6.80022 l 0.98574,-2.5927 3.97442,2.0276 c 5.13617,2.62028 10.45019,2.63151 13.0541,0.0276 4.37274,-4.37274 1.73474,-9.07814 -7.79822,-13.90971 -9.64221,-4.88694 -13.06498,-10.17088 -11.16326,-17.23335 1.82557,-6.77963 9.87545,-10.097134 19.32777,-7.96534 7.37211,1.66265 7.87503,2.11771 6.54786,5.92482 -1.25312,3.59472 -1.45186,3.66281 -4.91415,1.68358 -5.44825,-3.1145 -13,-0.93789 -13,3.74695 0,3.48254 1.56412,5.0145 8.87726,8.69478 4.19251,2.10985 8.47586,4.78152 9.51856,5.93705 2.67672,2.96636 3.28366,10.90658 1.14918,15.0342 -3.23539,6.25656 -13.91751,8.74412 -23.295,5.42474 z"
     style="fill:#fb0000" />
  <path
     inkscape:connector-curvature="0"
     id="path3174"
     d="m 116.73333,57.875912 c 0.67834,-0.683418 1.48524,-0.990671 1.79313,-0.682784 0.30789,0.307887 -0.24711,0.867048 -1.23333,1.242579 -1.4252,0.542685 -1.54006,0.427821 -0.5598,-0.559795 z M 132.2,57.8 c -1.91894,-1.918937 -1.41296,-2.484871 1.8,-2.013308 1.67914,0.246446 3,1.050764 3,1.826807 0,1.702582 -3.1611,1.825404 -4.8,0.186501 z m -27.91377,-2.438217 c -4.22737,-6.021337 -3.90394,-14.41851 0.74712,-19.397484 C 107.33722,33.497995 108.58605,33 112.46695,33 c 2.56549,0 5.53029,0.46334 6.58844,1.029644 C 121.93607,35.571336 124,40.338453 124,45.45034 124,49.233238 123.68381,50 122.12383,50 120.5656,50 120.16826,49.042549 119.77913,44.350142 119.25959,38.085118 117.52877,36 112.84783,36 108.60268,36 106,39.47445 106,45.141508 c 0,2.620412 0.49985,5.861438 1.11078,7.20228 0.73234,1.607315 0.78266,3.02421 0.14769,4.158836 -0.85912,1.535163 -1.17998,1.412006 -2.97224,-1.140841 z M 138.81461,51.14817 C 138.64157,50.741458 136.475,49.062031 134,47.41611 c -3.88477,-2.583446 -4.5,-3.464024 -4.5,-6.440872 0,-2.809861 0.53092,-3.702751 2.8676,-4.822695 3.18016,-1.524209 8.66049,-0.568281 9.39624,1.638973 0.31277,0.938299 -0.57645,1.102178 -3.46991,0.639494 -2.80059,-0.447832 -4.23193,-0.210644 -5.10944,0.846694 -1.84696,2.225446 -0.57398,4.134536 4.35303,6.528261 4.46026,2.166965 5.73305,4.492496 3.02709,5.530869 -0.78947,0.302947 -1.57697,0.218048 -1.75,-0.188664 z"
     style="fill:#673741" />
  <path
     inkscape:connector-curvature="0"
     id="path3172"
     d="m 134.61995,112.19408 c -0.74261,-1.20157 4.61031,-4.45059 7.7765,-4.72003 1.80789,-0.15385 1.81269,-0.10014 0.10268,1.15025 -0.98658,0.7214 -2.17748,1.07449 -2.64645,0.78465 -0.46897,-0.28984 -0.85268,0.0246 -0.85268,0.6987 0,0.67413 -0.29301,0.93268 -0.65112,0.57456 -0.35812,-0.35812 -1.18943,0.085 -1.84736,0.98482 -0.81022,1.10804 -1.41739,1.27812 -1.88157,0.52705 z m 28.11562,0.20815 c -0.32877,-0.32877 -0.3273,-1.30259 0.003,-2.16404 0.42888,-1.11765 0.22168,-1.33182 -0.72341,-0.74773 -0.82589,0.51043 -1.08401,0.42952 -0.68571,-0.21493 0.3513,-0.56842 2.10833,-0.90574 3.9045,-0.7496 1.79618,0.15614 3.82828,-0.17842 4.51578,-0.74346 0.86776,-0.7132 1.25,-0.68413 1.25,0.0951 0,0.61734 -0.47656,1.12244 -1.05902,1.12244 -0.58246,0 -0.83715,0.35899 -0.56598,0.79775 0.27117,0.43876 0.0303,1.45126 -0.53532,2.25 -0.83839,1.18399 -0.92436,1.12899 -0.4654,-0.29775 0.30962,-0.9625 0.28918,-1.75 -0.0454,-1.75 -0.33461,0 -1.25722,0.7875 -2.05025,1.75 -1.33666,1.62229 -1.40262,1.62463 -0.90392,0.032 0.29588,-0.94489 0.10762,-1.98395 -0.41836,-2.30902 -0.86267,-0.53316 -1.38451,0.8152 -1.07475,2.77699 0.14263,0.90332 -0.33189,0.96636 -1.14601,0.15223 z m -40.18179,-1.31522 c -0.37558,-0.6077 -0.39807,-2.00226 -0.05,-3.09903 0.5759,-1.81448 0.77475,-1.85228 2.20741,-0.41962 1.41081,1.41081 1.41601,1.73299 0.05,3.09903 -1.05309,1.05309 -1.7357,1.18285 -2.2074,0.41962 z m 1.90351,-1.01791 c 0.31644,-0.512 0.11799,-1.21356 -0.44098,-1.55902 -0.55897,-0.34546 -1.01631,0.0734 -1.01631,0.9309 0,1.75653 0.60006,2.01516 1.45729,0.62812 z m -4.37834,-1.37812 c -0.0434,-0.99496 -0.50979,-1.54274 -1.03636,-1.2173 -0.52658,0.32544 -1.68589,-0.81701 -2.57625,-2.53878 -1.95997,-3.79016 -2.71445,-7.206273 -1.41407,-6.402593 0.52125,0.32215 0.94084,-0.453331 0.93242,-1.72329 -0.0109,-1.646048 -0.25808,-1.926041 -0.86084,-0.975171 -0.67448,1.064019 -0.97482,0.996902 -1.48469,-0.331788 -0.94899,-2.473042 -0.74737,-3.205876 0.41325,-1.502058 0.7411,1.087937 0.84957,0.501303 0.39488,-2.135479 -0.38521,-2.233854 -0.20045,-3.899043 0.47922,-4.319099 0.60836,-0.37599 0.86643,-1.07143 0.57349,-1.545422 -0.29294,-0.473992 -0.0753,-1.144455 0.48369,-1.489919 0.55897,-0.345463 1.01631,0.04761 1.01631,0.873484 0,0.984651 0.71918,1.363099 2.08902,1.099291 1.48669,-0.286311 1.83989,-0.05351 1.22499,0.807418 -0.47522,0.665349 -0.83379,3.347226 -0.79683,5.959726 0.0671,4.741033 -0.91696,6.312581 -1.8785,3 -0.29339,-1.010753 -0.42997,-0.693932 -0.32332,0.75 0.10875,1.472441 0.80063,2.5 1.68332,2.5 0.82428,0 1.54323,0.675 1.59769,1.5 0.23476,3.5568 0.46387,4.0808 1.5034,3.43834 0.77269,-0.47755 0.81288,-0.12335 0.13513,1.19098 -0.53056,1.02888 -1.21493,2.54568 -1.52083,3.37068 -0.43027,1.16043 -0.57405,1.09048 -0.63512,-0.30902 z m 0.13643,-2.55413 c 0.6959,0.97465 0.7627,0.79315 0.2344,-0.63685 -0.40639,-1.1 -0.77026,-2.75446 -0.80862,-3.67658 -0.0383,-0.92212 -0.39221,-1.47728 -0.78635,-1.23369 -0.39414,0.24359 -1.0038,-0.0218 -1.35481,-0.58973 -0.35101,-0.567943 -1.0417,-0.783246 -1.53487,-0.478452 -0.49316,0.304795 -0.13656,2.148122 0.79245,4.096282 0.92901,1.94815 1.86808,3.0052 2.08682,2.34898 0.2904,-0.87122 0.66029,-0.82535 1.37098,0.17004 z M 117.14426,102.25 c -1.0912,-2.550044 -1.06651,-2.608858 0.33949,-0.80887 0.83394,1.06762 1.51625,2.30512 1.51625,2.75 0,1.51991 -0.67833,0.81036 -1.85574,-1.94113 z m -0.55604,-10.5 -0.5707,-3.25 1.38483,3.5 1.38482,3.5 -0.14359,-4.122357 c -0.091,-2.611751 -0.59103,-4.057589 -1.36464,-3.945611 -2.08828,0.302275 -2.49308,1.316503 -1.79465,4.496462 0.90035,4.099263 1.82873,3.949153 1.10393,-0.178494 z m 55.12151,12.14027 c 1.38882,-1.38882 -0.32951,-6.937359 -2.04737,-6.611056 -0.64684,0.122864 -1.01205,-0.642392 -0.82346,-1.725437 0.29151,-1.674104 0.11674,-1.761848 -1.25,-0.627555 -1.14454,0.949881 -1.5889,0.988253 -1.5889,0.137206 0,-0.649804 -0.45318,-0.901382 -1.00706,-0.559063 -0.55389,0.34232 -1.29446,-0.126539 -1.64572,-1.041908 -0.68223,-1.777863 1.14359,-3.467064 3.65278,-3.379464 0.91866,0.03207 0.628,0.472919 -0.75,1.137502 -2.79165,1.346359 -2.87914,2.306505 -0.22839,2.50618 1.11189,0.08376 1.78947,-0.223329 1.50575,-0.682411 -0.28373,-0.459082 0.0629,-1.056788 0.77028,-1.328236 1.57403,-0.604013 5.01041,1.775147 5.28712,3.660518 0.44616,3.039895 1.60291,5.623454 2.51781,5.623454 0.58084,0 0.52796,-0.82184 -0.13224,-2.055439 -0.60502,-1.130491 -0.95186,-2.499967 -0.77076,-3.043279 0.18111,-0.543312 0.86419,0.429283 1.51796,2.161323 1.05764,2.802005 0.98099,3.203475 -0.69525,3.641825 -1.03616,0.27096 -2.12594,1.12331 -2.42172,1.89411 -0.29578,0.7708 -1.09191,1.40146 -1.76918,1.40146 -0.90209,0 -0.93462,-0.29676 -0.12165,-1.10973 z m 1.73053,-5.272271 c -0.36139,-1.4399 -1.17079,-2.62489 -1.79867,-2.633312 C 171.01372,95.976265 171.175,95.533156 172,95 c 1.29735,-0.838413 1.27484,-0.971443 -0.16667,-0.984687 -0.91666,-0.0084 -1.87224,-0.577813 -2.12349,-1.265313 -0.25125,-0.6875 -0.40125,-0.05568 -0.33333,1.404041 0.0679,1.459722 0.48456,2.4311 0.92586,2.158616 0.4413,-0.272484 1.32098,0.878524 1.95483,2.557794 1.36764,3.623279 2.11574,3.463639 1.18306,-0.252452 z m -31.51677,0.977572 c -0.5758,-0.71924 -0.55323,-3.706369 0.0307,-4.067279 0.77771,-0.480653 0.66564,-2.42678 -0.46232,-8.028292 -0.58442,-2.902224 -0.55073,-2.934816 1.03363,-1 1.63774,2 1.63774,2 1.05365,0 -0.57541,-1.970301 -0.56178,-1.971175 0.91837,-0.05887 1.08249,1.398551 1.50673,1.53831 1.51776,0.5 0.0133,-1.254649 0.13328,-1.254683 0.92698,-2.63e-4 0.58848,0.930068 0.40709,2.416608 -0.51164,4.193249 -0.81261,1.571415 -1.02829,2.996521 -0.50267,3.321376 0.50636,0.312947 1.12632,-0.224015 1.37768,-1.193249 0.25136,-0.969234 0.3624,0.01656 0.24675,2.190643 -0.18748,3.524196 -0.49996,3.968361 -2.88135,4.095571 -1.46908,0.07848 -2.70549,0.09968 -2.74757,0.04711 z m 4.64855,-2.305694 c -0.10576,-0.720567 -0.70467,-1.822507 -1.33092,-2.448755 -0.85151,-0.851511 -0.79291,-1.807182 0.23238,-3.789878 C 146.76899,88.546043 146.71504,88.4 144.49411,88.4 c -1.75888,0 -2.17334,0.390087 -1.64685,1.55 0.62985,1.38764 0.71686,3.681097 0.19158,5.05 -0.98742,2.573273 -0.5707,3.6 1.46116,3.6 1.29806,0 2.18227,-0.559075 2.07204,-1.310123 z m -3.01925,-0.204467 c -0.32198,-0.520967 -0.15917,-1.210648 0.3618,-1.532624 0.52097,-0.321975 1.21065,-0.159164 1.53262,0.361804 0.32198,0.520967 0.15917,1.210648 -0.3618,1.532624 -0.52097,0.321975 -1.21065,0.159164 -1.53262,-0.361804 z M 161.12087,92 C 160.99969,90.000205 160.77542,89.800123 160,91 c -0.70439,1.089966 -0.97356,1.142172 -0.98469,0.190983 -0.008,-0.719959 -0.41432,-1.062414 -0.902,-0.76101 -1.42165,0.878625 -3.2123,-2.008443 -2.46062,-3.96727 0.41926,-1.092588 0.29603,-1.549042 -0.31608,-1.170737 -0.5518,0.341031 -1.00328,-0.03515 -1.00328,-0.835955 0,-0.800806 0.20917,-1.246844 0.46482,-0.991195 1.1393,1.139303 4.05707,-1.62029 3.69593,-3.495565 -0.24837,-1.28968 0.011,-1.775131 0.71572,-1.339589 0.73067,0.451583 0.91423,-0.04738 0.5416,-1.472294 -0.31,-1.185457 -0.24923,-2.349691 0.13504,-2.587187 0.38428,-0.237495 0.79918,0.887056 0.92201,2.499004 C 160.93127,78.681133 160.54806,80 159.95687,80 c -0.5912,0 -0.81601,0.418906 -0.49958,0.930902 0.31644,0.511996 0.0789,1.237723 -0.52788,1.612728 -0.70181,0.43374 0.0913,1.914302 2.17985,4.069098 1.80569,1.863 2.7761,3.387272 2.15646,3.387272 -0.61964,0 -1.32163,1.0125 -1.55999,2.25 -0.40847,2.120755 -0.44207,2.106395 -0.58486,-0.25 z M 162,88.980335 C 162,88.396733 157.31747,84 156.69593,84 c -0.27223,0 -0.10048,5.443135 0.17512,5.55 C 157.79436,89.908014 162,89.4409 162,88.980335 z m 10.21269,-9.564765 c -0.58961,-1.053563 -1.44116,-1.797309 -1.89235,-1.652767 -0.45119,0.144542 -0.86904,-0.593777 -0.92856,-1.640707 -0.13245,-2.329565 2.36667,-2.172918 4.14555,0.259847 0.95247,1.302579 1.3883,1.405516 1.78272,0.42106 0.28713,-0.716652 0.55758,-0.826511 0.601,-0.244133 0.0434,0.582379 -0.53199,1.894386 -1.2787,2.915571 -1.31961,1.804667 -1.3877,1.803017 -2.42966,-0.05887 z m 0.81816,-2.357932 c -1.13767,-2.125752 -3.04406,-1.966834 -3.01554,0.251379 0.01,0.780468 0.31704,0.714583 0.89068,-0.191145 0.68404,-1.080042 1.0285,-0.899646 1.57599,0.825361 0.38535,1.214118 0.921,1.987117 1.19035,1.717774 0.26934,-0.269343 -0.0193,-1.440859 -0.64148,-2.603369 z m -38.32034,-0.05664 C 134.14683,74.845476 135.37977,73.49864 137,74.5 c 0.55,0.339919 0.96447,1.153976 0.92105,1.809017 -0.0569,0.858753 -0.21965,0.84229 -0.58333,-0.05902 -0.82607,-2.047203 -2.19409,-1.416764 -1.62747,0.75 0.28766,1.1 0.29801,2 0.023,2 -0.275,0 -0.73524,-0.899552 -1.02275,-1.999004 z M 162.19495,76.5 c 0.0204,-1.65 0.2445,-2.203936 0.49804,-1.230968 0.25354,0.972967 0.23687,2.322967 -0.0371,3 C 162.38201,78.946064 162.17457,78.15 162.19495,76.5 z M 134.15789,68 c 0,-1.375 0.22698,-1.9375 0.50439,-1.25 0.27741,0.6875 0.27741,1.8125 0,2.5 -0.27741,0.6875 -0.50439,0.125 -0.50439,-1.25 z"
     style="fill:#622f37" />
  <path
     inkscape:connector-curvature="0"
     id="path3168"
     d="m 163.21245,113.25 c 0.11685,-0.4125 -0.36961,-1.80104 -1.08102,-3.08565 -0.71141,-1.2846 -1.03201,-2.5971 -0.71245,-2.91666 0.31956,-0.31956 0.58102,-0.11109 0.58102,0.46328 0,1.66044 5.86128,0.71158 8.2898,-1.342 2.18414,-1.84693 2.191,-1.84539 0.58208,0.13103 -0.89547,1.1 -1.45671,3.125 -1.24721,4.5 0.25428,1.66882 0.0938,2.05653 -0.48271,1.16615 -0.69657,-1.07582 -0.9812,-1.02746 -1.47141,0.25 -0.58953,1.53629 -4.88464,2.33965 -4.4581,0.83385 z m 3.99796,-2.18278 c 1.54458,-1.80393 1.53926,-1.92407 -0.0799,-1.8021 -0.95411,0.0719 -1.79584,0.94162 -1.8705,1.93278 -0.16924,2.24671 -0.0801,2.24074 1.95036,-0.13068 z m -32.66169,0.85394 c 0.32421,-0.52458 1.08485,-0.64762 1.69032,-0.27343 0.72568,0.4485 0.86473,0.0651 0.40801,-1.12513 -0.61246,-1.59602 -0.49443,-1.64406 1.01729,-0.41404 1.52536,1.24111 1.63016,1.17866 0.97004,-0.57808 -0.40705,-1.08323 -0.42021,-1.64964 -0.0292,-1.25868 0.39096,0.39097 1.32562,0.20063 2.07702,-0.42298 0.75139,-0.6236 1.6553,-0.8447 2.00867,-0.49132 0.35338,0.35337 0.0909,0.6425 -0.58318,0.6425 -0.67413,0 -0.97908,0.39901 -0.67768,0.88669 0.30141,0.48768 -0.0235,1.36102 -0.72204,1.94074 -1.68936,1.40205 -6.92428,2.33164 -6.15921,1.09373 z m -14.86185,-1.95283 c -1.56658,-1.23227 -2.36701,-2.6383 -2.01869,-3.54601 0.36208,-0.94355 0.0656,-1.3957 -0.7955,-1.21321 -0.9017,0.19108 -1.28742,-0.50103 -1.12418,-2.0172 0.13668,-1.26945 -0.1773,-2.04493 -0.69772,-1.72329 -0.52043,0.32164 -0.77059,-0.32722 -0.55592,-1.44191 C 114.70953,98.91202 114.53228,98 114.10097,98 c -0.43131,0 -0.80318,-2.1375 -0.82638,-4.75 l -0.0422,-4.75 1.42673,4 c 0.7847,2.2 1.22438,4.788121 0.97706,5.75138 -0.2723,1.060549 -0.0311,1.492665 0.61158,1.095491 0.66894,-0.413428 0.76218,-0.171988 0.25223,0.653129 -0.53243,0.86149 -0.41823,1.0675 0.33404,0.60257 0.75846,-0.46876 0.94694,-0.10017 0.56017,1.09549 -0.48734,1.50659 -0.40601,1.55608 0.49614,0.30194 0.95913,-1.33333 1.09718,-1.33333 1.2424,0 0.0898,0.825 0.25512,2.175 0.36725,3 0.11213,0.825 0.30214,2.4 0.42223,3.5 0.21834,2 0.21834,2 1.07777,0 1.1441,-2.66247 1.197,-4.35953 0.0809,-2.59671 -0.66442,1.04945 -0.90283,0.7973 -0.94549,-1 -0.10199,-4.29734 -0.45435,-5.824224 -1.23301,-5.342989 -1.03041,0.636829 -1.55222,-0.405809 -2.28229,-4.560301 -0.45132,-2.568261 -0.36823,-2.967578 0.31212,-1.5 1.19989,2.58829 1.26326,-0.217878 0.0677,-3 -0.85943,-2 -0.85943,-2 -1.0199,0 -0.10572,1.317519 -0.49274,0.844514 -1.13416,-1.386133 -0.65524,-2.278736 -0.6334,-3.726402 0.0668,-4.42659 0.72061,-0.720611 0.91002,-0.363141 0.61614,1.162842 -0.23337,1.211816 -0.0204,1.953678 0.47324,1.648583 0.49365,-0.305095 1.44534,0.468829 2.11486,1.719831 1.43649,2.68412 2.16863,8.842262 0.79298,6.66999 -0.70043,-1.10604 -0.88243,-1.0325 -0.89463,0.361477 -0.008,0.9625 0.67942,1.75 1.52853,1.75 0.84911,0 1.47529,0.5625 1.39151,1.25 -0.31016,2.54523 1.27348,5.4145 3.88129,7.03221 2.089,1.29587 2.28266,1.67047 0.87434,1.69118 -0.99496,0.0146 -1.56241,0.42562 -1.26101,0.9133 0.30141,0.48768 -0.0584,1.38999 -0.79961,2.00512 -1.02361,0.84952 -1.97175,0.62749 -3.94349,-0.92348 z M 123.9144,106.5 c 0.0302,-0.55 -0.38124,-0.325 -0.9144,0.5 -0.53316,0.825 -0.94464,2.175 -0.9144,3 0.058,1.58385 1.72467,-1.60578 1.8288,-3.5 z m 46.65913,-5.95976 c -0.36458,-1.943383 -1.19804,-3.406504 -1.86618,-3.276025 -0.66404,0.129682 -1.14939,-0.524498 -1.07854,-1.453732 0.0708,-0.929234 -0.46874,-1.918817 -1.19907,-2.199072 -0.88762,-0.34061 -1.14772,0.05378 -0.78448,1.189517 0.41163,1.28706 0.31155,1.375245 -0.41273,0.363662 -0.52588,-0.734476 -1.35583,-1.273206 -1.84433,-1.197179 -1.39858,0.217663 -1.72003,-3.144296 -0.37983,-3.972584 0.86262,-0.533131 0.89059,-0.939239 0.0984,-1.428844 C 162.49804,88.189774 162,88.385081 162,89 c 0,0.614919 -0.48068,0.820959 -1.06817,0.457866 -0.5875,-0.363092 -0.81765,-1.313021 -0.51146,-2.110954 0.3062,-0.797933 0.16813,-1.210622 -0.30682,-0.917087 -0.47495,0.293535 -0.86355,1.71495 -0.86355,3.1587 0,1.849846 0.25386,2.224353 0.85969,1.268238 0.66969,-1.056913 0.86307,-0.970006 0.875,0.393237 0.0232,2.656268 -1.66676,2.0968 -3.61164,-1.195618 -0.95701,-1.62009 -2.18392,-2.67127 -2.72647,-2.335955 -0.57882,0.357729 -0.72258,-0.07798 -0.3479,-1.054382 C 154.66866,85.699881 154.44813,85 153.77434,85 c -0.6396,0 0.16203,-1.0125 1.78138,-2.25 2.84898,-2.177171 3.46048,-3.314968 3.73415,-6.947976 0.0711,-0.943917 0.33106,-1.514424 0.57769,-1.267794 0.24663,0.24663 0.942,0.03879 1.54525,-0.461871 1.57978,-1.311098 1.42585,5.069626 -0.16281,6.74907 -1.85164,1.957447 -1.56186,3.020555 1.71709,6.299507 2.30426,2.304265 2.63935,3.092855 1.5,3.530066 C 163.66019,90.960639 163,91.872976 163,92.678417 c 0,1.240531 0.24027,1.224173 1.57143,-0.106988 2.03168,-2.031685 4.08982,-1.999154 5.25509,0.08306 0.56831,1.015521 1.56763,1.408235 2.58754,1.016858 1.08202,-0.415208 1.852,-0.03306 2.20732,1.095509 0.30012,0.953227 0.96046,2.633141 1.46742,3.733141 0.78351,1.700063 0.83881,1.625083 0.36872,-0.5 -0.47035,-2.126301 -0.38831,-2.237227 0.54885,-0.74208 1.10878,1.768931 0.59859,3.742083 -0.96756,3.742083 -1.14243,0 -3.04519,-5.647057 -2.20716,-6.550446 0.36759,-0.396256 -0.30785,-0.213107 -1.50098,0.406999 -1.63792,0.851275 -2.26662,0.835602 -2.56648,-0.06398 -0.25245,-0.757366 -0.62394,-0.600448 -1.01963,0.430699 -0.49217,1.282583 -0.11192,1.529568 1.81648,1.179882 1.83659,-0.333037 2.43518,-0.0052 2.42365,1.32729 -0.0132,1.526754 -0.16337,1.56374 -1.09434,0.269557 -0.89739,-1.247514 -0.97897,-1.191666 -0.48468,0.331787 0.32688,1.007484 0.62596,2.357482 0.66462,3.000002 0.0386,0.64251 0.41305,0.29231 0.83199,-0.77824 0.71775,-1.834114 0.79635,-1.813977 1.36196,0.34892 0.33014,1.26244 0.33465,2.02975 0.01,1.70512 -0.32463,-0.32463 -1.14187,-0.13243 -1.81608,0.42711 -0.91513,0.7595 -1.39282,0.12724 -1.88465,-2.49446 z M 169,93 c 0,-0.55 -0.47656,-1 -1.05902,-1 -0.58246,0 -0.7809,0.45 -0.44098,1 0.33992,0.55 0.81648,1 1.05902,1 C 168.80156,94 169,93.55 169,93 z m -11.5,-6 c -0.88345,-1.708395 -1.10977,-3 -0.52568,-3 0.56412,0 1.02568,0.45 1.02568,1 0,0.55 0.54,1 1.2,1 0.91985,0 0.9254,-0.274598 0.0238,-1.176206 -0.9016,-0.901609 -0.88993,-1.526033 0.05,-2.674646 0.87549,-1.06985 0.44686,-0.991286 -1.49855,0.274677 -2.6189,1.704232 -2.66647,1.885841 -1.22432,4.674646 C 157.37616,88.694312 158.27636,90 158.55136,90 c 0.275,0 -0.19811,-1.35 -1.05136,-3 z m 3.5,-9 c 0,-1.1 -0.17252,-2 -0.38337,-2 -0.21085,0 -0.61872,0.9 -0.90638,2 -0.28766,1.1 -0.11514,2 0.38337,2 C 160.59213,80 161,79.1 161,78 z m -19.60037,14.367563 c 0.0795,-3.962127 -0.20291,-6.989141 -0.62755,-6.726698 C 140.34743,85.903308 140,85.641476 140,85.059017 c 0,-1.18883 2.93597,-1.480179 3.11402,-0.309017 0.72874,4.793509 0.70042,6.567798 -0.0846,5.29767 -0.60132,-0.972964 -0.82112,-0.251337 -0.68091,2.235589 0.11386,2.019773 0.78916,4.244811 1.50067,4.944528 0.7115,0.699717 1.2082,0.822213 1.10379,0.272213 -0.10442,-0.55 -0.10213,-1.225 0.005,-1.5 0.10721,-0.275 0.34202,-1.175 0.5218,-2 0.17978,-0.825 0.6378,-2.4 1.01782,-3.5 0.57539,-1.665504 0.4952,-1.749128 -0.47951,-0.5 -1.04041,1.333333 -1.12146,1.333333 -0.72946,0 0.24255,-0.825 0.0145,-2.327687 -0.50685,-3.339304 -0.77036,-1.494897 -0.60462,-1.773158 0.88513,-1.486049 1.56947,0.302472 1.8333,1.362693 1.8352,7.375018 l 0.002,7.021764 -3.12467,0 -3.12467,0 0.14452,-7.203866 z m 5.22095,4.011861 c 0.12614,-0.859478 -0.0499,-1.283428 -0.39123,-0.942111 -0.34131,0.341317 -0.72378,1.323785 -0.84993,2.183263 -0.12614,0.859478 0.0499,1.283428 0.39123,0.942111 0.34131,-0.341317 0.72378,-1.323785 0.84993,-2.183263 z m -3.34738,-2.402639 c -0.0803,-1.065573 0.27679,-2.198662 0.79345,-2.517976 0.51666,-0.319315 0.79962,0.335229 0.6288,1.45454 -0.42734,2.800202 -1.24535,3.411838 -1.42225,1.063436 z M 118.18333,87.783333 C 116.45674,86.05674 116.73321,85 118.91152,85 c 1.11358,0 1.82139,0.614065 1.69561,1.471056 -0.32388,2.206684 -1.10596,2.630116 -2.4238,1.312277 z m 55.27473,-7.915461 c -0.53159,-1.674894 -0.86443,-1.835731 -1.55207,-0.75 -0.68521,1.081887 -0.87869,1.097769 -0.89068,0.07311 -0.008,-0.719959 -0.38857,-1.07833 -0.84477,-0.79638 -0.45621,0.28195 -0.75641,-0.478992 -0.66712,-1.690983 0.15366,-2.085839 0.55564,-2.239545 4.78229,-1.82862 0.70715,0.06875 1.28572,0.991962 1.28572,2.051581 0,1.05962 -0.40178,1.678267 -0.89285,1.374771 -0.49125,-0.303612 -0.58945,0.404096 -0.21833,1.573419 0.37099,1.168877 0.44953,2.12523 0.17453,2.12523 -0.275,0 -0.80452,-0.959458 -1.17672,-2.132128 z m -0.26088,-2.731025 c 0.795,1.134668 0.89133,1.126376 0.57474,-0.04947 -0.20918,-0.776945 -1.11229,-1.520054 -2.00689,-1.651354 -1.12091,-0.164514 -1.43559,0.258912 -1.01227,1.362065 0.45482,1.185257 0.72786,1.260069 1.05181,0.288202 0.35584,-1.067511 0.61586,-1.058071 1.39261,0.05056 z M 134,78 c -0.76724,-1.4336 -0.76049,-2 0.0238,-2 0.60181,0 0.87568,-0.353571 0.60861,-0.785714 -0.26708,-0.432143 0.28927,-0.785715 1.23634,-0.785715 1.315,0 1.62531,0.658322 1.31308,2.785715 C 136.70065,80.49293 135.49368,80.790975 134,78 z m 1.68311,-1.1875 c -0.31922,-0.797733 -0.55618,-0.560776 -0.60416,0.604167 -0.0434,1.054166 0.19292,1.644791 0.52522,1.3125 0.33229,-0.332292 0.36781,-1.194792 0.0789,-1.916667 z M 122,76.622445 c 0,-0.207656 0.7875,-0.995156 1.75,-1.75 1.58606,-1.243871 1.62143,-1.208501 0.37756,0.377555 C 122.82119,76.915748 122,77.445479 122,76.622445 z m 13.8125,-38.305559 c 0.72187,-0.288871 1.58437,-0.253344 1.91667,0.07895 0.33229,0.332292 -0.25834,0.568641 -1.3125,0.52522 -1.16495,-0.04798 -1.4019,-0.284941 -0.60417,-0.604167 z M 99.07258,27.365141 c -1.139919,-1.449172 -2.058896,-3.136672 -2.042171,-3.75 0.01672,-0.613327 0.470196,-0.361394 1.007714,0.559853 0.537519,0.921247 2.521277,2.184551 4.408357,2.807344 2.76556,0.912714 4.00132,0.837454 6.37111,-0.388009 C 112.17575,24.857754 113,23.24645 113,18.418213 c 0,-3.333658 -2.19801,-6.617289 -5.125,-7.656308 -0.75625,-0.268453 -1.05154,-0.8356589 -0.65621,-1.2604586 1.39014,-1.4937449 5.7115,2.5338586 6.871,6.4039186 C 116.3662,23.503347 112.23084,30 105.11803,30 c -3.10089,0 -4.42777,-0.57831 -6.04545,-2.634859 z M 117,28.956163 c 0,-0.57411 0.5625,-0.970793 1.25,-0.881517 4.36179,0.566403 5.28257,-2.419238 1.30501,-4.231535 -2.97114,-1.353744 -3.98577,-3.619155 -2.44982,-5.469859 1.331,-1.603754 5.89481,-1.85879 5.89481,-0.329415 0,0.57411 -0.5625,0.970793 -1.25,0.881517 -4.59137,-0.596214 -5.00482,1.374392 -0.75,3.574646 3.32205,1.7179 4.16959,5.83721 1.41821,6.893011 C 119.94271,30.34295 117,30.105692 117,28.956163 z M 96.157895,20 c 0,-1.375 0.226973,-1.9375 0.504386,-1.25 0.277412,0.6875 0.277412,1.8125 0,2.5 -0.277413,0.6875 -0.504386,0.125 -0.504386,-1.25 z"
     style="fill:#582630" />
</svg>
